<?xml version="1.0" encoding="UTF-8" standalone="no"?>
<svg
        id="human"
   xmlns="http://www.w3.org/2000/svg"
   version="1.0"
   viewBox="0 0 210 297"
   height="297mm"
   width="210mm" >
  <defs
     id="defs4" />
  <metadata
     id="metadata7">
  </metadata>
  <g
     transform="matrix(0.13012435,0,0,0.12753052,49.042251,87.621012)"
     id="layer1">
    <path
       id="main" class="changeSvgOpacity tooltip-trigger on" data-tooltip-text="human body"
       d="m 634.49994,1566.4014 c -4.1696,-1.87 -10.3514,-7.6095 -13.4286,-12.4678 -1.2193,-1.925 -3.0244,-6.425 -4.0114,-10 -0.9869,-3.575 -3.0214,-8.975 -4.521,-12 -3.5099,-7.0804 -6.661,-26.5486 -8.012,-49.5 -0.9061,-15.3941 -1.3366,-17.9919 -4.5574,-27.5 -1.9562,-5.775 -4.184,-13.2 -4.9506,-16.5 -0.7666,-3.3 -1.8318,-7.8 -2.3671,-10 -0.5353,-2.2 -1.2901,-8.275 -1.6775,-13.5 -0.5353,-7.2205 -1.5563,-11.7795 -4.2552,-19 -1.953,-5.225 -3.8683,-12.425 -4.2563,-16 -0.4399,-4.0538 -2.0391,-9.4606 -4.2495,-14.3668 -5.0183,-11.139 -5.4741,-16.9959 -2.1506,-27.6332 4.7582,-15.2291 4.4181,-37.4866 -1.1077,-72.5 -2.7896,-17.6754 -10.6391,-61.249 -13.6009,-75.5 -4.1637,-20.0339 -5.4114,-24.5906 -15.7886,-57.6583 -8.8284,-28.1323 -9.3894,-34.0272 -12.9271,-135.84177 l -0.8686,-25 -5.2441,-13.4917 c -2.8843,-7.4205 -6.8333,-16.6455 -8.7757,-20.5 -5.5344,-10.9826 -12.8912,-33.07369 -15.1713,-45.55639 -1.4558,-7.97018 -2.0841,-15.58738 -2.0966,-25.41648 -0.01,-7.7195 -0.4484,-18.0854 -0.9748,-23.0354 -0.5264,-4.95 -1.4443,-16.875 -2.0399,-26.5 -0.5956,-9.625 -1.9443,-23.575 -2.9971,-31 -2.4398,-17.2069 -13.4284,-70.4111 -20.9634,-101.5 -3.575,-14.7505 -6.6987,-30.6763 -8.1051,-41.3231 -1.2585,-9.5277 -2.7638,-17.9523 -3.3451,-18.7214 -0.8688,-1.1496 -2.2662,-0.6161 -7.8548,2.9986 -5.4784,3.5435 -8.0018,4.5241 -13,5.0521 -3.6728,0.3879 -7.338,0.2189 -8.9877,-0.4144 -2.1091,-0.8097 -2.8742,-0.7686 -3.1503,0.1694 -0.2005,0.6813 -1.5581,10.2388 -3.0167,21.2388 -1.4587,11 -4.1898,26.975 -6.0692,35.5 -4.7143,21.3841 -10.2529,56.3484 -11.4447,72.2486 -0.5463,7.2883 -1.655,17.7514 -2.4638,23.2514 -1.526,10.3776 -3.6087,57.5986 -3.6166,82 -0.007,21.5696 -1.3053,31.07168 -6.3533,46.49998 -2.4294,7.42499 -6.3078,17.99999 -8.6186,23.49999 -2.3108,5.5 -5.5018,14.6172 -7.0912,20.2605 -4.0877,14.5133 -4.05,17.3995 1.1329,86.80857 0.5779,7.738 1.0492,20.788 1.0475,29 -0.004,20.8904 -1.6977,30.7501 -14.0714,81.931 -2.1276,8.8 -4.6147,20.05 -5.527,25 -0.9123,4.95 -2.5588,13.275 -3.6588,18.5 -1.1,5.225 -2.3775,12.2 -2.8388,15.5 -0.4613,3.3 -1.7489,10.95 -2.8612,17 -2.7387,14.8966 -5.1131,41.7504 -5.1131,57.8286 0,10.8146 0.4559,15.0143 2.5078,23.1033 3.7251,14.6848 4.0669,21.613 1.4835,30.0681 -7.6762,25.1224 -9.0293,32.6468 -9.9805,55.5 -0.7113,17.0881 -1.1471,20.5513 -3.5236,28 -1.4916,4.675 -3.7355,10.525 -4.9864,13 -3.2324,6.3952 -4.6973,17.2932 -4.5438,33.8046 0.0731,7.8675 -0.3081,15.7425 -0.8472,17.5 -0.5391,1.7575 -2.1612,7.8784 -3.6046,13.6021 -1.4435,5.7238 -3.5429,12.2071 -4.6655,14.4075 -1.1226,2.2004 -2.7011,6.2924 -3.5079,9.0933 -0.8068,2.8009 -3.0653,7.4535 -5.0189,10.3393 -3.0214,4.463 -4.3081,5.4713 -8.6139,6.75 -10.5385,3.1296 -19.1761,1.2832 -23.2771,-4.9757 -2.3087,-3.5235 -1.5285,-14.4407 1.4486,-20.2711 1.7102,-3.3491 1.8661,-4.25 0.7359,-4.25 -1.7079,0 -7.9506,10.8346 -9.507,16.5 -0.6044,2.2 -1.4365,4.4997 -1.8491,5.1105 -1.2761,1.8887 -7.0033,4.3895 -10.0527,4.3895 -4.1355,0 -9.5139,-3.9231 -10.6544,-7.7715 -0.7565,-2.5526 -1.4949,-3.2285 -3.5275,-3.2285 -3.5077,0 -6.9552,-2.6109 -8.579,-6.4972 -0.9492,-2.2718 -2.2021,-3.4059 -4.2052,-3.8065 -3.3727,-0.6745 -5.2315,-4.0929 -5.2315,-9.6209 0,-2.3533 -0.6408,-4.3598 -1.6617,-5.203 -2.9779,-2.4595 -6.3383,-11.5805 -6.3383,-17.2039 0,-6.348 5.5101,-31.1563 7.7001,-34.6685 0.8573,-1.375 2.598,-3.625 3.868,-5 1.2701,-1.375 4.1196,-6.1 6.3323,-10.5 2.2127,-4.4 7.1789,-11.825 11.0361,-16.5 7.4866,-9.074 9.4403,-11.7944 15.7999,-22 2.7678,-4.4416 4.3807,-8.4546 5.0933,-12.6722 0.6991,-4.1372 3.1827,-10.4014 7.5329,-19 7.0514,-13.9376 7.6956,-16.9678 6.2348,-29.3278 -0.7809,-6.6081 -0.4074,-8.6251 5.9204,-31.9679 2.2399,-8.2629 1.8463,-15.8661 -2.4607,-47.5321 -2.1693,-15.95 -4.8944,-38.675 -6.0557,-50.5 -1.1612,-11.825 -2.9723,-29.15 -4.0245,-38.5 -1.0522,-9.35 -2.3995,-21.725 -2.9939,-27.5 -0.5944,-5.775 -2.699,-21.975 -4.6768,-36 -3.2506,-23.051 -3.6061,-27.757 -3.7011,-49 -0.1018,-22.768 0.1369,-26.1526 4.4795,-63.50007 1.3491,-11.6023 3.2466,-23.1413 7.0714,-43 3.0073,-15.6145 3.0606,-16.3976 2.2128,-32.5 -0.4778,-9.07499 -0.8688,-29.77497 -0.8688,-45.99997 0,-32.2785 0.5366,-28.2801 -6.6426,-49.5 -3.5336,-10.4445 -7.7037,-33.6505 -11.9069,-66.2612 -1.1157,-8.6563 -3.136,-22.325 -4.4895,-30.3748 -1.3536,-8.0498 -2.461,-16.1637 -2.461,-18.0309 0,-1.8671 -1.101,-9.2309 -2.4466,-16.3639 -1.3457,-7.1331 -3.3728,-19.7192 -4.5048,-27.9692 -1.1319,-8.25 -2.7362,-19.5 -3.565,-25 -6.116,-40.5863 -14.6021,-124.9012 -13.0506,-129.6668 0.2387,-0.7333 0.6811,-16.1832 0.9832,-34.3332 0.9563,-57.4638 4.1607,-86.9975 11.6724,-107.5802 6.1626,-16.88589 8.1215,-33.04622 8.4149,-69.4198 0.1959,-24.29866 0.3317,-25.28116 8.6385,-62.5 5.9522,-26.66917 7.2495,-40.32543 7.3146,-77 0.0453,-25.58289 -1.1892,-42.94517 -4.5509,-64.000002 -3.2047,-20.07214 -3.7609,-20.35554 -6.3257,-3.22316 -1.5291,10.21401 -10.4237,47.019182 -17.2123,71.223162 -2.3979,8.54944 -2.6837,11.3511 -2.8569,28 -0.1058,10.175 -0.6962,20.525 -1.3121,23 -1.5918,6.3973 -10.9882,33.73414 -13.2335,38.5 -3.2623,6.92469 -9.645,22.66611 -12.7724,31.5 -13.8901,39.23478 -26.92793,72.15423 -37.42693,94.5 -13.84711,29.4718 -20.41206,45.9258 -33.71452,84.5 -8.51006,24.6773 -14.67836,42.1368 -16.07483,45.5 -0.45674,1.1 -1.06483,4.025 -1.3513,6.5 -0.28648,2.475 -1.04212,7.875 -1.6792,12 -0.68729,4.45 -0.87421,10.55 -0.45966,15 1.65173,17.7306 1.91941,14.9755 -5.00361,51.5 -4.19095,22.1106 -4.29327,19.8717 2.55919,56 1.04319,5.5 2.02301,15.0993 2.17739,21.3317 0.28046,11.3228 0.27846,11.3337 -2.52508,13.75 -1.56042,1.3449 -4.08036,2.4183 -5.67742,2.4183 -4.91347,0 -6.50032,-3.3555 -8.92761,-18.8777 -1.199999,-7.6739 -3.055039,-17.006 -4.122299,-20.738 -1.06726,-3.732 -2.66464,-10.726 -3.54973,-15.5422 -1.94628,-10.5905 -3.60718,-12.5957 -6.95526,-8.3968 -1.26586,1.5875 -2.5452,4.2743 -2.84296,5.9706 -0.29776,1.6962 -0.82168,15.6841 -1.16427,31.0841 -0.86928,39.0756 -1.5338,46.0337 -4.69867,49.1985 -2.96871,2.9687 -8.48632,3.3635 -12.27893,0.8784 -2.86162,-1.875 -2.98349,-3.5082 -1.42348,-19.0769 0.79919,-7.9758 0.6601,-13.0012 -0.68712,-24.8264 -1.39599,-12.2532 -1.48645,-16.1581 -0.52121,-22.5 1.37819,-9.055 1.49578,-15.1736 0.29163,-15.1736 -0.4747,0 -1.12703,2.8125 -1.44963,6.25 -0.3226,3.4375 -1.07382,10.525 -1.66938,15.75 -0.59555,5.225 -1.26129,21.3428 -1.47942,35.8172 -0.32409,21.5067 -0.67755,26.7461 -1.93365,28.6631 -2.84824,4.347 -11.48796,4.4696 -15.35065,0.2178 -1.78038,-1.9597 -2.09019,-4.3132 -2.85632,-21.6981 -1.07623,-24.4216 -1.12064,-40.8095 -0.13096,-48.3195 0.51078,-3.8759 0.42729,-5.6095 -0.25,-5.1909 -0.5593,0.3456 -1.0169,1.9253 -1.0169,3.5104 0,1.5851 -0.45,3.1601 -1,3.5 -0.61758,0.3817 -1,9.0211 -1,22.5911 0,23.3482 -0.69179,27.6032 -4.8496,29.8284 -3.64109,1.9487 -7.92007,1.2581 -11.38462,-1.8373 l -3.26578,-2.9178 -0.61629,-22.3322 c -0.33895,-12.2827 -0.21705,-25.7072 0.2709,-29.8322 0.48794,-4.125 1.8436,-15.6 3.01257,-25.5 2.26341,-19.1689 3.44554,-38.5 2.35433,-38.5 -0.68416,0 -10.7417096,8.6339 -17.8559596,15.3285 -7.15183,6.7299 -15.7536304,9.6946 -27.9643304,9.6382 -8.2157,-0.0379 -11.7012,-1.9423 -11.7012,-6.3932 0,-2.0605 0.7848,-2.9402 3.75,-4.2037 10.0812,-4.2954 12.25,-5.4225 12.25,-6.3663 0,-0.5623 4.8055,-5.8513 10.679,-11.7533 5.8735004,-5.902 12.6562904,-13.4353 15.0729804,-16.7406 7.7606196,-10.6142 8.5249896,-11.5096 9.8249896,-11.5096 0.70282,0 2.22675,-1.2063 3.38651,-2.6807 1.15977,-1.4744 4.06556,-4.0619 6.45731,-5.75 10.81814,-7.6355 26.52254,-21.7959 29.18,-26.3112 4.60494,-7.8243 6.39814,-12.0041 6.41794,-14.9598 0.01705,-2.5453 1.469,-8.5081 7.0124,-28.7983 1.05184,-3.85 2.8263,-10.349 3.94324,-14.4422 1.11693,-4.0933 2.71333,-11.3761 3.54753,-16.1842 0.83421,-4.808 3.0494,-12.9758 4.92264,-18.1508 5.44067,-15.0301 8.28354,-28.8607 16.07856,-78.2228 5.384619,-34.09811 8.275229,-50.72711 10.951249,-63 1.31917,-6.05 3.8142,-19.1 5.54452,-29 2.95287,-16.89479 8.59308,-38.99281 13.14466,-51.5 1.10085,-3.025 3.71783,-10.45 5.81552,-16.5 2.09769,-6.05 5.16097,-13.925 6.80728,-17.5 8.60334,-18.68227 12.03221,-32.80756 15.17169,-62.500002 1.16306,-11 3.22073,-29 4.57259,-40 6.83681,-55.6306154 6.97213,-57.5588255 6.70192,-95.499996 -0.39174,-55.006829 1.31538,-75.017372 9.38426,-109.999992 4.64667,-20.14565 9.61019,-35.37995 13.35672,-40.9952 7.16306,-10.73583 16.92296,-18.21616 31.10966,-23.8436 7.7101,-3.05836 11.1084,-4.78911 20.9168,-10.65304 3.025,-1.80849 9.9222,-4.93299 15.327,-6.94335 23.2254,-8.6388 78.087,-35.00093 92.173,-44.29105 9.6526,-6.36616 15.8503,-12.47444 18.086,-17.82523 2.1692,-5.19175 4.4187,-21.18424 4.929,-35.04315 0.4475,-12.15086 0.3597,-12.86187 -2.3791,-19.26099 -6.048,-14.13124 -9.339,-25.76078 -12.5863,-44.47594 -1.6647,-9.59468 -2.0549,-10.66846 -3.8765,-10.66846 -0.6648,0 -2.9423,-1.17791 -5.0609,-2.61757 -5.1209,-3.47971 -10.5218,-15.10838 -14.0038,-30.15117 -2.9888,-12.91235 -3.2052,-17.84251 -1.1321,-25.80139 1.5607,-5.99222 2.5981,-7.75895 6.3405,-10.79843 2.0005,-1.6248 2.2235,-2.44467 1.6338,-6.00654 -0.3755,-2.26869 -1.0789,-4.87971 -1.563,-5.80227 -0.4841,-0.92255 -1.3693,-7.44755 -1.9671,-14.5 -0.5978,-7.05244 -1.565,-13.81559 -2.1494,-15.0292 -0.7532,-1.56415 -0.7378,-5.05784 0.053,-12 0.7133,-6.2623 0.7658,-9.91362 0.1457,-10.12676 -1.2435,-0.42741 -1.264,-3.86682 -0.0276,-4.63096 0.5183,-0.32028 1.2163,-2.70934 1.5513,-5.30902 0.3349,-2.59968 1.0359,-5.50808 1.5578,-6.46312 0.5218,-0.95504 0.9487,-2.93027 0.9487,-4.3894 0,-1.45914 1.4268,-4.95274 3.1707,-7.76357 1.7438,-2.81083 4.6197,-7.65436 6.3907,-10.7634 2.9507,-5.17982 11.6216,-16.39746 20.3493,-26.32603 4.2573,-4.84306 12.7702,-11.38051 15.8393,-12.16378 1.2375,-0.31581 2.25,-0.99515 2.25,-1.50964 0,-0.51448 0.5625,-0.83079 1.25,-0.70291 0.6875,0.12788 2.6638,-0.10246 4.3918,-0.51186 2.4199,-0.57331 3.0296,-1.17375 2.6532,-2.61288 -0.4106,-1.57038 0.2821,-1.98409 4.3416,-2.59285 2.6566,-0.39839 6.32,-1.34681 8.1408,-2.10761 1.8209,-0.76079 3.7606,-1.10521 4.3104,-0.76536 0.5499,0.33984 1.6289,0.0958 2.3978,-0.5423 0.7689,-0.63811 3.5616,-1.22787 6.2062,-1.31058 2.6445,-0.0827 5.1288,-0.611 5.5206,-1.17398 0.4692,-0.67421 2.3923,-0.42692 5.6342,0.72449 5.7862,2.05507 8.8284,2.22318 9.3964,0.51925 0.3044,-0.91332 1.047,-0.81117 2.8922,0.39786 2.3459,1.53708 6.1748,1.55979 9.8648,0.0585 0.825,-0.33565 2.85,-0.72059 4.5,-0.85542 1.65,-0.13483 4.5264,-0.55916 6.3921,-0.94296 2.3297,-0.47928 3.1825,-0.35886 2.7231,0.38449 -0.4518,0.73096 1.2533,1.07313 5.2522,1.054 6.3467,-0.0304 10.1897,1.48146 13.8551,5.45048 1.2223,1.32361 4.2558,2.97587 6.7411,3.6717 2.4852,0.69583 5.5351,2.27338 6.7775,3.50568 1.2424,1.23229 4.5089,3.39238 7.2589,4.80019 8.302,4.25007 15.9752,12.39027 30.8279,32.70433 1.8096,2.475 3.8661,6.075 4.57,8 0.7038,1.925 1.9376,4.73318 2.7418,6.2404 2.0081,3.76385 3.5903,12.61913 4.0664,22.7596 0.479,10.20112 0.5097,8.89212 -0.6454,27.5 -1.1752,18.93058 -2.5659,29.33835 -4.7368,35.45072 l -1.7068,4.80555 2.6654,3.16764 c 2.8702,3.411 6.7175,14.43091 6.7175,19.24096 0,5.091 -4.8764,24.96662 -8.2599,33.66611 -2.0332,5.22794 -4.5127,9.60447 -6.6568,11.75 -3.4264,3.42883 -4.0607,3.68376 -9.5449,3.83653 l -2.9616,0.0825 -2.8478,14 c -4.1909,20.60301 -4.4371,21.72492 -5.4853,25 -0.9447,2.95203 -0.8367,16.49634 0.2536,31.78354 0.8373,11.74007 4.0668,26.2969 6.9107,31.14967 3.5709,6.0932 11.9019,13.34767 21.1528,18.41943 38.7397,21.2388 75.4792,39.28726 97.9392,48.11318 17.8261,7.00497 20.9263,8.5599 33.5,16.80257 14.4648,9.48236 25.8461,18.89174 30.4702,25.19094 8.8376,12.03924 15.2684,33.27635 20.6035,68.04068 2.0645,13.45238 2.2428,18.40147 2.4675,68.499992 0.2317,51.6643505 1.2084,74.734706 4.3922,103.746926 5.6725,51.691752 8.7195,73.310532 12.2273,86.753072 2.4682,9.45852 2.8965,10.62447 9.9197,27 6.1916,14.43646 18.5133,51.00167 21.9037,65 1.1322,4.675 3.42,17.725 5.0838,29 1.6639,11.275 4.7868,31.3 6.9398,44.5 3.9243,24.05875 7.0864,45.0461 9.0401,60 2.036,15.5834 4.1439,27.8572 6.0766,35.3811 2.2239,8.658 12.3516,40.6536 17.6053,55.6189 1.9308,5.5 4.9888,15.175 6.7956,21.5 5.873,20.5592 8.1565,25.5866 14.8942,32.7905 3.3443,3.5758 12.7637,12.3431 20.9321,19.4829 9.158,8.0048 15.8669,14.709 17.5,17.4877 3.1738,5.4003 9.7715,13.8668 16.2184,20.8123 2.59,2.7903 5.6616,6.9403 6.8257,9.2222 3.0664,6.0107 7.3293,10.4905 13.5967,14.289 4.871,2.9522 5.5076,3.7154 5.5076,6.6036 0,4.9694 -3.3551,6.7177 -11.619,6.0543 -10.1637,-0.8158 -18.8322,-5.6187 -30.131,-16.6942 l -9.25,-9.0673 v 6.1442 c 0,6.4714 0.4261,9.5384 4.5671,32.8748 4.211,23.731 4.3919,25.6481 4.4128,46.7821 0.0233,23.4499 -0.6308,26.3384 -6.5209,28.7995 -3.3015,1.3794 -3.9296,1.3548 -7.286,-0.286 -4.9164,-2.4035 -5.7996,-5.4834 -7.15,-24.935 -1.6741,-24.1117 -2.3149,-28.3419 -5.6401,-37.2297 -1.3106,-3.5029 -2.3829,-7.8904 -2.3829,-9.75 0,-1.8595 -0.45,-3.3809 -1,-3.3809 -1.4881,0 -1.2106,6.3986 0.5768,13.2963 2.0019,7.7255 2.328,27.0593 0.6732,39.9143 -0.6875,5.3408 -1.25,15.5126 -1.25,22.604 0,12.2107 -0.1266,13.03 -2.3914,15.4737 -3.126,3.3731 -9.019,4.5233 -12.5101,2.4418 -4.8091,-2.8675 -5.0934,-4.5554 -4.7546,-28.2301 0.3079,-21.5068 -0.1677,-31.8237 -2.3029,-49.9568 -1.7358,-14.7423 -3.1836,-12.9313 -2.4217,3.0294 0.447,9.3647 0.2989,15.1694 -0.446,17.475 -1.6961,5.2497 -3.1402,19.893 -3.4852,35.3401 -0.2973,13.317 -0.4098,13.9686 -2.7374,15.8533 -3.2214,2.6086 -10.5951,1.8013 -13.287,-1.4547 -1.7384,-2.1027 -1.806,-4.4835 -1.2682,-44.6731 0.5524,-41.2774 0.3512,-45.1132 -2.3669,-45.1132 -0.3995,0 -0.7991,3.8905 -0.8878,8.6455 -0.0888,4.755 -0.8999,11.3925 -1.8024,14.75 -0.9025,3.3575 -1.729,8.3545 -1.8366,11.1045 -0.3279,8.3772 -1.643,20.7917 -2.612,24.6569 -1.5489,6.1787 -9.1228,7.0905 -13.2277,1.5923 -2.7297,-3.6561 -3.2967,-15.4692 -1.524,-31.7492 1.744,-16.0166 1.7474,-35.9524 0.007,-42.7477 -0.7391,-2.8863 -1.6366,-5.0668 -1.9946,-4.8458 -0.3579,0.2211 -0.7456,-1.8037 -0.8615,-4.4996 -0.1159,-2.6959 -0.6692,-6.6041 -1.2295,-8.685 -3.5076,-13.0261 -4.9891,-27.4109 -4.7766,-46.3771 0.2059,-18.3671 0.1031,-19.5576 -2.0332,-23.555 -1.2375,-2.3156 -2.25,-4.8884 -2.25,-5.7174 0,-1.4677 -7.0823,-18.3342 -22.3404,-53.2037 -4.123,-9.4222 -9.9625,-23.5972 -12.9767,-31.5 -3.0142,-7.9028 -10.5163,-26.2937 -16.6712,-40.8687 -13.9709,-33.0835 -16.61,-39.92387 -28.5509,-74 -9.5817,-27.34346 -12.3968,-34.5745 -18.2977,-47 -3.4464,-7.25691 -13.1324,-33.77895 -15.1561,-41.5 -0.8037,-3.0664 -1.3936,-12.15431 -1.5254,-23.5 -0.1924,-16.5678 -0.4917,-19.49221 -2.866,-28 -5.5652,-19.9425 -11.7541,-46.03729 -14.5769,-61.46172 -2.4296,-13.276312 -6.0387,-40.868222 -6.0387,-46.167092 0,-0.75416 -0.3964,-1.37119 -0.8808,-1.37119 -0.4845,0 -1.6367,5.0625 -2.5604,11.25 -0.9237,6.1875 -3.1827,19.35 -5.0199,29.25 -9.5161,51.277102 -10.3621,79.918542 -3.3824,114.500002 9.2609,45.8836 10.6538,56.607 11.8846,91.5 0.5238,14.85 1.3931,28.8 1.9318,31 0.5387,2.2 0.9901,5.89667 1.0033,8.21482 0.0173,3.07166 0.5291,4.48521 1.8867,5.21178 1.0245,0.54833 2.3446,2.25166 2.9335,3.78518 1.1276,2.93612 4.1691,17.68372 4.6999,22.78822 0.1715,1.65 0.986,5.1375 1.8099,7.75 0.824,2.6125 1.262,4.75 0.9735,4.75 -0.2885,0 -0.0313,0.5944 0.5717,1.3209 0.6029,0.7265 1.067,2.639 1.0314,4.25 -0.0357,1.611 0.4615,5.1791 1.1049,7.9291 4.6569,19.9049 6.0409,27.5138 7.003,38.5 1.2515,14.2906 2.621,25.7896 4.5258,38 0.7294,4.675 2.1073,15.6846 3.0622,24.4659 1.5244,14.0175 1.5892,18.1666 0.531,34 -1.7689,26.4671 -6.7811,79.1533 -9.6593,101.5341 -1.3792,10.725 -3.3804,32.1 -4.447,47.5 -2.2741,32.8319 -10.2645,109.8413 -12.5096,120.5643 -0.8563,4.0896 -2.396,10.1357 -3.4214,13.4357 -5.7213,18.4108 -8.1319,55.6004 -6.1579,94.99997 1.1152,22.2568 2.0167,27.328 9.4217,53 4.5284,15.6993 11.1988,49.48405 13.1296,66.50005 2.6949,23.7506 1.9375,62.8686 -1.975,102 -1.5165,15.1674 -3.1585,46.276 -4.0116,76 -0.2763,9.625 -0.9568,23.8 -1.5123,31.5 -3.3987,47.1108 -3.8287,67.806 -1.5431,74.2839 0.783,2.2194 1.1971,4.2619 0.9201,4.5389 -0.2771,0.277 0.2685,1.6822 1.2123,3.1226 3.5481,5.4151 5.5023,15.5422 6.089,31.5546 l 0.5678,15.5 4.6085,6 c 4.8384,6.2995 13.1605,21.8299 17.1474,32 1.2936,3.3 2.9549,6.7104 3.6916,7.5787 0.7367,0.8683 1.3395,1.9965 1.3395,2.5071 0,0.5106 2.0613,3.4002 4.5806,6.4213 6.2447,7.4885 18.2389,25.3306 20.5683,30.5965 1.0479,2.3691 2.9548,5.5649 4.2375,7.1019 6.1081,7.3189 8.597,16.1172 8.5697,30.2945 -0.0181,9.3858 -0.3087,11.0836 -2.7382,16 -1.557,3.1509 -3.7857,6.0173 -5.2179,6.7112 -2.737,1.3261 -3.6985,4.1841 -3.8817,11.5388 -0.1445,5.802 -2.9351,9.2638 -6.7049,8.3176 -2.2707,-0.5699 -2.4134,-0.3517 -2.4134,3.6908 0,6.0579 -2.1461,8.7416 -6.9903,8.7416 -3.4738,0 -3.9097,0.2825 -4.1933,2.7177 -0.7394,6.3508 -14.2827,10.0112 -19.3674,5.2344 l -2.1798,-2.0479 -0.5872,2.9357 c -1.1552,5.7761 -16.1955,9.9855 -23.682,6.6279 z"
       style="fill:#e0b8a3;fill-opacity:0.32549021;opacity:0.86" />

    <path
       id="pancreas" class="changeSvgOpacity tooltip-trigger on" data-tooltip-text="pancreas"
       stroke-miterlimit="3.9"
       d="m 430.02767,93.880719 36.04774,-18.320081 12.61132,3.668906 14.40947,-9.153933 14.4215,5.485027 19.81607,-7.313353 12.61131,3.6567 h 16.21969 l 2.44552,13.017828 -13.04286,8.459159 -38.04973,9.665848 -32.43936,16.49171 -11.71221,1.64555 -5.85011,7.94721 -4.55542,4.63179 16.26762,13.89547 -1.95403,12.57905 -5.20276,11.92084 -13.66624,2.64501 h -10.42953 l -29.29849,-12.57906 -11.72423,-29.13168 v -22.50089 l 12.37158,-17.210848 12.37154,-3.973627 10.42949,3.303217 z"
       style="fill:#ffdf40;fill-opacity:0.52899996;stroke:#0c2c8e;stroke-width:3.62641454;stroke-miterlimit:3.9000001;stroke-dasharray:10.87932286, 3.6264411" />
    <path
       d="m 449.30429,-309.95273 1.49849,97.36566 9.23071,180.567736 2.06194,67.831714 12.31159,12.530239 9.75819,9.385539 5.63434,-12.51808 24.13171,-2.084334 17.95792,12.518129 7.19278,22.964035 -10.27367,34.446092 -29.76605,33.39782 -53.3703,22.95189 -19.50438,-7.30121 -14.37353,-25.04836 -11.29265,-2.08433 -12.31163,12.51808 1.01898,14.62681 -16.42348,2.07213 4.11189,-30.26529 23.61623,-18.78321 21.54231,-7.31341 14.38555,8.36166 10.24969,-2.09652 14.38552,-13.56635 3.06891,-29.217008 -20.52337,-18.79543 -8.21172,-21.915766 2.03793,-36.5304197 1.03098,-117.9284863 -8.21173,-148.21813 1.5824,-36.73762 z"
       stroke-miterlimit="3.9"
       id="abdomen" class="changeSvgOpacity tooltip-trigger on" data-tooltip-text="stomach"
       style="fill:#ff8716;fill-opacity:0.79799996;stroke:#ff1f64;stroke-width:3.62641454;stroke-miterlimit:3.9000001" />
    <path
       d="m 512.38481,28.511221 10.27366,6.265107 v 14.61456 l -6.16178,7.301207 -28.7471,19.831481 -35.91584,11.482064 -31.82799,3.132542 -21.55432,39.650818 -27.71611,22.96403 -51.32034,18.78327 -7.19277,-11.48207 5.14281,-16.69889 -14.38551,-35.46995 1.03097,-56.374118 18.48538,-28.168704 43.10862,-10.446001 42.07765,3.132601 31.82799,11.482053 42.07766,1.048221 21.5663,-6.265131 z"
       stroke-miterlimit="3.9"
       id="liver" class="changeSvgOpacity tooltip-trigger on" data-tooltip-text="liver"
       style="fill:#dc6d2a;fill-opacity:0.77399998;stroke:#df0b1b;stroke-width:3.62641454;stroke-miterlimit:3.9000001" />
    <path
       d="m 448.95327,-309.81878 1.2925,164.48655 8.51064,6.32262 3.4102,-50.55637 18.72139,-32.65867 22.14157,3.16131 31.49727,27.38162 36.60763,85.31846 10.21079,80.053742 -8.51063,50.556327 -16.17616,10.529519 -39.16283,-11.587358 -40.86295,6.322623 11.92087,-41.084741 3.40027,-40.014575 -25.5319,-53.717667 -29.79715,-11.58735 -11.92084,11.58735 -11.92085,17.897711 1.71009,91.6411019 -12.77588,26.3237261 -40.00791,17.909931 -30.6522,35.807687 -15.32111,1.057874 -5.96539,-11.587345 -2.54523,-61.085844 14.46608,-109.538766 28.95206,-75.834526 38.30775,-35.82 14.46606,3.16131 10.22074,35.81997 3.40026,27.38161 8.52058,-7.38045 0.8451,-49.49851 3.86754,-110.20303 z"
       stroke-miterlimit="3.9"
       id="lung" class="changeSvgOpacity tooltip-trigger on"
       style="fill:#aedd84;fill-opacity:0.73900003;stroke:#00fa00;stroke-width:3.11860251;stroke-miterlimit:3.9000001" />
    <path
       d="m 468.2572,170.24474 24.63522,6.26513 3.06893,12.53029 v 12.51813 l 15.4045,-6.25299 13.34257,-1.04822 9.23071,9.38552 3.09287,10.44596 -6.16177,10.43374 -17.45446,7.31342 23.61623,10.43379 -4.11185,22.95188 -16.42346,14.62676 -11.29264,6.25299 1.03096,11.48202 -10.27366,9.38552 -24.63521,6.26515 2.0619,10.43375 v 17.74719 l -12.32358,13.56635 -19.50437,1.04822 -8.21176,-18.78321 1.03096,14.6024 -15.4045,8.34947 -21.55433,-1.03607 -15.39248,-27.14489 -20.53534,-1.03607 -11.2806,-14.6146 1.01895,-9.38552 15.40447,-15.66283 -12.32354,-20.86755 -12.31163,-24.01235 6.14982,-19.83148 -4.09988,-17.73495 1.01896,-16.69894 9.24273,-10.44595 19.5043,-5.21693 10.26168,-9.38548 18.4734,-2.09653 18.48542,7.31341 13.34257,12.51808 h 14.37353 l 4.09988,-9.38554 z"
       stroke-miterlimit="3.9"
       id="smallIntestine" class="changeSvgOpacity tooltip-trigger on"
       style="fill:#ecdd44;stroke:#b69e00;stroke-width:3.62641454;stroke-miterlimit:3.9000001" />
    <path
       d="m 412.82497,-62.796528 -4.53142,12.639981 -5.51446,11.445448 -0.0959,11.823355 -0.0839,11.823297 11.89203,22.671519 23.99985,13.602907 29.76605,3.132589 11.29265,-14.626812 7.19278,-32.349562 -8.63133,-25.840667 -7.19277,-8.020343 13.76216,-5.789795 -4.09987,-10.445954 -11.29265,6.265131 -4.11185,-5.216874 11.29264,-9.385527 -3.50048,-7.532801 -18.05384,10.653185 -1.37861,-12.627811 -6.37758,-4.899948 3.62034,-10.97011 -8.0319,-2.98629 -4.03993,11.408887 -2.09792,-15.943197 -5.8381,0.53632 0.50347,19.331737 -4.91503,-16.418577 -7.03695,5.52159 1.57045,-1.58453 5.4425,17.491201 -2.21776,4.875597 -11.10084,-9.190516 -7.40855,-19.490192 1.23476,-10.27533 -7.99596,2.68157 1.15085,24.804608 5.29869,12.798438 6.1498,8.593265 z"
       stroke-miterlimit="3.9"
       id="heart" class="changeSvgOpacity tooltip-trigger on"
       style="fill:#f15c50;fill-opacity:0.73200001;stroke:#782a30;stroke-width:3.62641454;stroke-miterlimit:3.9000001" />
    <path
       d="m 440.0376,410.97734 -21.33852,-2.31592 -24.74312,1.15795 -11.97594,6.55771 -11.96396,6.54545 -17.53832,23.15911 3.93202,24.15856 19.13273,20.09969 29.46635,11.23822 3.68031,46.80575 5.51446,-3.74204 2.72126,-29.77769 9.67424,-18.90516 27.12873,-3.49824 20.28359,-15.91877 7.58837,-26.84018 -2.60138,-18.79542 -11.38857,-9.84871 -10.60932,-6.78931 z"
       stroke-miterlimit="3.9"
       id="bladder" class="changeSvgOpacity tooltip-trigger on"
       style="fill:#dd81c9;fill-opacity:0.697;stroke:#ba155b;stroke-width:3.62641454;stroke-miterlimit:3.9000001" />
    <path
       d="m 426.16756,461.64698 1.03097,16.69894 -9.24273,35.46995 -8.21172,-3.12039 -8.21172,-27.13269 5.13083,-19.83148 -8.21175,-20.87975 -11.29262,-34.43389 -1.01899,-24.01234 16.42349,-17.73496 21.5543,-6.26514 26.68516,7.31336 13.34257,-19.84365 14.37353,-6.25297 -1.03097,-22.96403 7.19278,-11.48207 11.28066,-1.04822 -5.13084,-17.735 7.19275,-4.18081 1.01898,-16.69894 11.29265,-9.38553 -4.09988,-12.53029 9.23072,-6.26513 3.08089,-8.34947 8.21172,-9.38548 -5.13084,-25.0484 3.08092,-10.44598 -5.13084,-9.38552 -10.26168,-4.1808 -20.53534,5.21687 H 475.438 l -9.23072,3.13259 -7.19277,-7.30124 -9.23072,3.13258 -42.08963,3.1326 v -7.3134 l -19.50441,3.13255 -12.32357,-7.31336 -9.23072,8.36161 -11.29261,-4.1808 -14.37354,16.69888 4.09988,36.53042 v 38.61476 l 7.19277,2.09647 1.01899,15.65069 16.42342,8.34946 -6.14983,19.83148 8.21176,22.96403 -1.03097,16.69894 6.16181,14.60241 -12.32361,7.31341 -3.08089,13.56634 1.03097,12.53028 -4.09984,6.25293 -4.11185,-18.78321 5.13084,-14.61461 -18.47345,-2.08432 -11.29261,-16.6989 -7.19277,-28.18095 5.14282,-8.34948 -9.23072,-19.83147 4.09988,-14.61461 -3.08088,-12.51808 6.16177,-10.4338 -8.21173,-17.74716 1.01898,-12.51807 -9.23071,-8.34947 6.14979,-14.62682 -3.08089,-11.46981 8.21173,-10.43379 -1.01894,-12.53029 13.34255,-12.51807 v -15.66287 l 13.34257,-2.08434 17.45439,-9.38552 14.36156,8.3373 21.5663,-10.4338 15.39252,7.31342 h 32.84694 l 6.16181,4.1686 26.68516,1.04827 8.21173,1.03607 12.32361,-3.13256 14.36156,2.09649 17.45442,-8.34948 10.26167,3.1204 8.21173,-2.07212 12.32362,14.6024 6.16181,18.78322 -5.14283,6.26515 10.27366,6.26518 -12.32361,24.01229 3.08092,6.25295 -10.26167,14.61459 5.13083,8.34949 -13.3426,13.56633 2.04996,20.86755 -6.16182,13.56635 2.06194,9.39773 -7.19277,6.26514 -3.08089,12.51808 -11.29264,7.31341 -5.13084,26.08441 -14.37354,11.48207 3.08089,9.38548 -12.31161,9.39774 -10.26167,16.69894 -10.27367,-5.21692 -11.29264,6.26513 -12.3116,5.21692 -28.7471,-2.08432 11.29265,20.87975 -5.13085,21.91582 -8.21172,4.1686 z"
       stroke-miterlimit="3.9"
       id="largeIntestine" class="changeSvgOpacity tooltip-trigger on"
       style="fill:#52c65e;fill-opacity:0.697;stroke:#556c37;stroke-width:3.62641454;stroke-miterlimit:3.9000001" />
    <path
       d="m 359.83828,85.653156 16.27964,-1.316422 11.07684,8.605423 3.24873,17.869053 -7.81613,12.57904 -7.80413,6.61863 -1.30669,12.57906 -9.11083,9.93401 14.32557,19.19767 5.20277,10.60441 -5.20277,9.26364 -13.0309,9.26363 -31.25252,-13.89543 -8.46348,-23.18345 V 130.6793 l 7.16877,-17.88126 13.01893,-18.527269 z m 147.53557,6.52109 -16.27961,-1.328579 -11.06489,8.605422 -3.26071,17.881251 7.81616,12.57905 7.81613,6.61859 1.2947,12.57905 9.11082,9.93405 -14.31359,19.19763 -5.21478,10.59226 5.21478,9.26363 13.0189,9.26364 31.25255,-13.89547 8.46348,-23.17127 V 137.18819 L 534.071,119.31914 521.04009,100.77967 Z"
       stroke-miterlimit="3.9"
       id="kidney" class="changeSvgOpacity tooltip-trigger on"
       style="fill:#5b3f3f;fill-opacity:0.856;stroke:#bd8edb;stroke-width:3.62641454;stroke-miterlimit:3.9000001;stroke-dasharray:14.50576396, 3.6264411" />
    <g
       transform="matrix(10.94974,0,0,11.38706,192.2567,-166.91056)"
       id="layer1-0">
      <path
         style="fill:#942914;fill-opacity:0.74299999;stroke:#fc5000;stroke-width:0.23999999;stroke-miterlimit:3.9000001;stroke-dasharray:0.47922533, 0.23961266"
         d="m 33.509889,18.859744 0.38,-0.518999 0.519,-0.346 0.553,-0.069 0.796,0.241999 1.002,0.934 0.485,1.245 -0.104,1.002 -0.346,0.969 -0.553,0.691001 -0.83,0.311 -0.692,-0.138001 -0.657,-0.587999 -0.138,-0.467 0.277,-0.674001 -0.139,-0.898999 -0.45,-0.553001 -0.103,-0.484 z"
         stroke-miterlimit="3.9"
         id="spleen" class="changeSvgOpacity tooltip-trigger on" />
    </g>
  </g>
   <g id="tooltip" visibility="hidden" padding="1" >
		<rect width="5" height="20" fill="white" rx="10" ry="10" opacity='0.8'/>
		<text x="10" y="5" font-size="5" opacity='0.7' font-weight="lighter" >Tooltip
      <tspan id="tspanid" x="10" y="12" font-size="5" font-weight="lighter"></tspan>
      <tspan id="tspanid2" x="10" y="20" font-size="5" font-weight="lighter"></tspan></text>
	</g>
</svg>

