<?xml version="1.0" encoding="UTF-8" standalone="no"?>
<svg id="female" width="200px" height="500px" viewBox="0 0 244 897" version="1.1" xmlns="http://www.w3.org/2000/svg"
	 xmlns:xlink="http://www.w3.org/1999/xlink" xml:space="preserve"
	 style="fill-rule:evenodd;clip-rule:evenodd;stroke-linejoin:round;stroke-miterlimit:1.41421;">

        <g
				id="g12426"
				transform="matrix(1,0,0,1,-236.516,-124.795)">
            <g
					id="bodies">
                <g
						id="g12408">
                    <g
							opacity="0.610001"
							id="g12406">
                        <g
								id="g12404">
                            <clipPath
									id="_femaleclip1">
                                <rect
										id="rect12395"
										height="786.506"
										width="243.145"
										y="235.158"
										x="236.516"/>
                            </clipPath>
							<g
									id="g12402"
									clip-path="url(#_femaleclip1)">
                                <path
										id="path12398"
										style="fill:white;fill-rule:nonzero;"
										d="M380.383,236.258L380.295,250.394C382.026,266.903 395.196,281.231 410.514,289.847L416.813,293.391C416.965,293.476 417.126,293.545 417.294,293.598L430.423,297.669C443.005,301.571 454.464,311.152 457.445,320.135C460.067,328.038 458.082,420.726 457.567,442.912L457.62,442.912C457.552,445.947 457.511,447.662 457.511,447.662C457.505,448.5 457.601,449.335 457.795,450.149L466.035,484.76C466.071,484.909 466.091,485.06 466.097,485.213L469.091,568.266L469.95,569.125L470.161,574.973C470.165,575.081 470.176,575.188 470.195,575.294L478.502,622.156C478.526,622.29 478.538,622.425 478.538,622.561L478.538,640.511C478.538,640.989 478.39,641.456 478.115,641.846L472.064,650.434C471.945,650.604 471.803,650.757 471.642,650.889L455.959,663.794C454.637,664.882 452.634,664.212 452.232,662.55L451.707,660.384C451.538,659.685 451.702,658.948 452.152,658.387L461.19,647.118C461.562,646.655 461.741,646.068 461.693,645.476L460.308,628.735C460.184,627.236 457.503,627.508 457.503,627.508C457.503,637.811 455.726,644.357 455.726,644.357C455.761,645.099 455.439,645.814 454.858,646.278C453.416,647.433 451.268,646.518 451.1,644.678C451.1,644.678 448.058,613.771 448.917,611.195L453.927,588.556C454.02,588.199 454.026,587.826 453.945,587.467C453.945,587.467 428.947,483.913 428.311,470.388C427.674,456.862 426.25,400.843 426.594,391.8C426.659,390.083 425.735,385.79 427.452,378.922L421.442,396.952C419.508,406.48 417.256,462.66 417.256,462.66C417.69,479.495 432.604,526.195 432.604,526.195C432.67,526.42 439.389,543.548 441.184,554.882C442.98,566.215 441.874,605.357 440.331,618.064C438.788,630.771 411.998,722.811 414.573,747.71C414.573,747.71 419.28,762.104 421.388,786.044C423.495,809.984 406.846,866.195 406.846,866.195L387.15,944.981C387.116,945.116 387.094,945.255 387.085,945.394L385.769,965.791L385.399,971.523C385.388,971.707 385.398,971.893 385.43,972.075L387.842,985.742C387.917,986.17 388.111,986.568 388.402,986.89L403.294,1003.44C403.372,1003.52 403.458,1003.61 403.549,1003.68L410.375,1009.27C411.598,1010.27 411.484,1012.17 410.152,1013.02L403.9,1017C403.579,1017.2 403.214,1017.32 402.835,1017.35L389.674,1018.38L372.575,1019.45C372.527,1019.45 372.479,1019.45 372.43,1019.45L368.398,1019.45C367.291,1019.45 366.338,1018.67 366.123,1017.58L363.099,1002.27C363.072,1002.13 363.057,1002 363.055,1001.86L362.2,947.009L364.776,803.572L366.49,754.677C366.492,754.63 366.492,754.582 366.491,754.534L365.315,710.791L362.2,595.741C362.2,595.741 359.624,600.034 354.043,595.754L350.928,711.649L349.752,755.392C349.751,755.44 349.751,755.488 349.753,755.536L351.468,804.43L354.043,947.867L353.188,1002.72C353.186,1002.85 353.171,1002.99 353.144,1003.13L350.12,1018.44C349.905,1019.53 348.952,1020.31 347.845,1020.31L343.813,1020.31C343.764,1020.31 343.716,1020.31 343.668,1020.31L326.569,1019.24L313.408,1018.21C313.029,1018.18 312.664,1018.06 312.343,1017.85L306.091,1013.88C304.759,1013.03 304.645,1011.12 305.868,1010.12L312.694,1004.54C312.785,1004.46 312.871,1004.38 312.95,1004.3L327.841,987.749C328.132,987.426 328.326,987.028 328.401,986.601L330.813,972.933C330.845,972.751 330.855,972.566 330.844,972.381L330.474,966.649L329.158,946.252C329.149,946.113 329.127,945.975 329.093,945.839L309.397,867.053C309.397,867.053 292.748,810.842 294.855,786.902C296.963,762.963 301.67,748.569 301.67,748.569C304.245,723.67 277.455,631.629 275.912,618.923C274.369,606.216 273.263,567.074 275.059,555.74C276.854,544.407 283.573,527.278 283.639,527.054C283.639,527.054 298.553,480.354 298.987,463.519C298.987,463.519 296.735,407.339 294.801,397.81L288.791,379.78C290.508,386.649 289.584,390.942 289.649,392.659C289.993,401.701 288.569,457.72 287.932,471.246C287.296,484.772 262.298,588.326 262.298,588.326C262.217,588.685 262.223,589.058 262.316,589.414L267.326,612.054C268.185,614.63 265.143,645.536 265.143,645.536C264.975,647.377 262.827,648.291 261.385,647.137C260.804,646.672 260.482,645.958 260.517,645.215C260.517,645.215 258.74,638.67 258.74,628.367C258.74,628.367 256.059,628.095 255.935,629.593L254.55,646.335C254.502,646.926 254.681,647.514 255.053,647.977L264.091,659.246C264.541,659.806 264.705,660.544 264.536,661.242L264.011,663.408C263.609,665.071 261.606,665.74 260.285,664.653L244.601,651.748C244.44,651.616 244.298,651.463 244.179,651.293L238.128,642.705C237.853,642.314 237.705,641.848 237.705,641.37L237.705,623.419C237.705,623.284 237.717,623.148 237.741,623.015L246.048,576.153C246.067,576.047 246.078,575.939 246.082,575.832L246.293,569.983L247.152,569.125L250.146,486.072C250.152,485.919 250.172,485.767 250.208,485.618L258.448,451.008C258.642,450.193 258.738,449.358 258.732,448.521C258.732,448.521 258.691,446.805 258.623,443.771L258.676,443.771C258.161,421.585 256.176,328.897 258.798,320.994C261.779,312.01 273.238,302.43 285.82,298.528L298.949,294.456C299.117,294.404 299.278,294.335 299.43,294.249L305.729,290.706C321.047,282.089 334.217,267.762 335.948,251.253L336.078,235.457C336.078,235.457 339.398,238.765 344.485,243.598C347.154,246.133 350.917,249.377 357.029,249.736C364.45,250.173 370.609,245.633 374.778,241.863C378.256,238.717 380.383,236.258 380.383,236.258"/>
								<path
										id="path12400"
										style="fill:white;;fill-rule:nonzero"
										d="m 380.229,236.643 c -1.417,1.582 -2.91,3.084 -4.456,4.536 -1.638,1.538 -3.352,3.012 -5.199,4.31 -1.849,1.291 -3.826,2.427 -5.948,3.227 -1.06,0.402 -2.153,0.718 -3.267,0.938 -1.109,0.212 -2.262,0.337 -3.392,0.325 -1.114,0.018 -2.28,-0.118 -3.387,-0.322 -1.12,-0.207 -2.212,-0.554 -3.263,-0.989 -2.108,-0.873 -4.006,-2.186 -5.702,-3.678 -1.693,-1.5 -3.261,-3.1 -4.894,-4.645 l -4.854,-4.675 0.511,-0.21 -0.075,15.796 -10e-4,0.035 c -0.515,4.86 -1.992,9.601 -4.214,13.942 -2.207,4.353 -5.082,8.345 -8.373,11.931 -3.292,3.59 -6.98,6.808 -10.943,9.632 -3.948,2.869 -8.264,5.141 -12.451,7.533 -0.278,0.154 -0.492,0.287 -0.823,0.458 -0.354,0.165 -0.641,0.224 -0.925,0.321 l -1.73,0.542 -3.463,1.083 -6.924,2.168 c -4.582,1.398 -8.935,3.483 -12.929,6.117 -3.979,2.639 -7.637,5.821 -10.521,9.595 -1.422,1.893 -2.649,3.944 -3.441,6.138 -0.411,1.024 -0.491,2.217 -0.63,3.402 -0.115,1.188 -0.194,2.389 -0.263,3.59 -0.255,4.81 -0.342,9.644 -0.41,14.474 -0.059,4.832 -0.078,9.667 -0.073,14.501 0.01,9.67 0.102,19.341 0.228,29.011 0.259,19.342 0.653,38.684 1.131,58.022 0.012,0.481 -0.368,0.88 -0.849,0.892 h -0.023 l -0.052,0.001 0.872,-0.893 0.097,3.949 c 0.095,1.297 -0.074,2.887 -0.43,4.136 l -1.816,7.689 -3.632,15.377 -1.817,7.689 -0.454,1.922 c -0.124,0.626 -0.373,1.351 -0.353,1.748 l -0.136,3.948 -0.541,15.791 -2.164,63.165 c -0.01,0.287 -0.134,0.548 -0.321,0.737 l -0.857,0.86 0.322,-0.738 -0.161,4.697 -0.048,1.252 -0.03,0.292 -0.061,0.366 -0.102,0.578 -0.406,2.315 -1.628,9.259 -3.261,18.515 -1.631,9.258 -0.815,4.629 -0.204,1.157 -0.102,0.579 -0.051,0.289 c -0.01,0.057 -0.015,0.099 -0.017,0.149 l 10e-4,2.289 0.015,14.1 0.001,1.175 0.004,0.515 c 0.005,0.096 0.024,0.19 0.053,0.281 0.025,0.083 0.081,0.192 0.112,0.242 l 0.316,0.451 0.678,0.96 2.712,3.839 1.355,1.92 0.678,0.96 0.339,0.479 c 0.074,0.108 0.124,0.159 0.197,0.226 l 7.238,5.942 7.265,5.965 c 0.571,0.447 1.341,1.158 1.539,1.182 0.331,0.13 0.754,0.065 1.045,-0.163 0.136,-0.087 0.279,-0.31 0.306,-0.369 0.009,0.023 0.051,-0.144 0.076,-0.216 l 0.022,-0.07 c 0.023,-0.082 -0.018,0.071 -0.011,0.042 l 0.009,-0.035 0.034,-0.143 0.138,-0.571 0.275,-1.142 0.066,-0.275 c 0.009,-0.045 0.018,-0.09 0.022,-0.136 0.009,-0.091 0.006,-0.183 -0.008,-0.274 -0.03,-0.187 -0.095,-0.343 -0.223,-0.51 l -0.714,-0.888 -1.472,-1.832 -2.945,-3.663 -2.945,-3.663 -0.736,-0.916 c -0.191,-0.224 -0.659,-0.797 -0.828,-1.358 -0.099,-0.285 -0.164,-0.582 -0.188,-0.883 -0.013,-0.136 -0.015,-0.319 -0.008,-0.47 l 0.024,-0.323 0.095,-1.171 0.764,-9.369 0.383,-4.685 0.095,-1.171 0.013,-0.15 c 0.012,-0.101 0.024,-0.201 0.045,-0.303 0.046,-0.206 0.117,-0.416 0.224,-0.61 0.209,-0.394 0.528,-0.696 0.825,-0.885 0.609,-0.382 1.147,-0.483 1.641,-0.555 0.51,-0.062 0.931,-0.072 1.465,-0.03 0.65,0.051 1.144,0.593 1.147,1.233 v 0.036 c 0.006,2.79 0.145,5.578 0.416,8.349 0.144,1.385 0.317,2.766 0.535,4.136 0.108,0.685 0.227,1.368 0.361,2.044 l 0.209,1.01 0.23,0.971 0.012,0.05 c 0.027,0.116 0.037,0.238 0.031,0.351 -0.016,0.322 0.132,0.648 0.385,0.847 l -0.81,-0.285 c -0.072,-0.025 -0.11,-0.104 -0.085,-0.176 0.026,-0.072 0.105,-0.11 0.177,-0.085 0.014,0.005 0.027,0.012 0.038,0.021 l 0.68,0.525 c 0.297,0.229 0.652,0.282 1,0.151 0.347,-0.135 0.583,-0.425 0.635,-0.775 l 0.024,-0.149 0.003,-0.019 c 0.01,-0.075 -0.012,0.092 -0.009,0.072 l 10e-4,-0.01 0.003,-0.037 0.007,-0.074 0.029,-0.3 0.057,-0.599 0.114,-1.198 0.222,-2.399 0.836,-9.597 c 0.261,-3.199 0.509,-6.399 0.712,-9.595 0.101,-1.597 0.192,-3.194 0.254,-4.783 0.029,-0.793 0.055,-1.587 0.058,-2.365 10e-4,-0.387 0,-0.779 -0.016,-1.143 -0.009,-0.181 -0.013,-0.376 -0.033,-0.522 l -0.024,-0.222 c -0.009,-0.027 -0.013,-0.054 -0.011,-0.083 l -0.038,-0.135 -3.199,-14.383 -1.6,-7.192 -0.2,-0.899 -0.05,-0.214 c -0.027,-0.119 -0.048,-0.239 -0.063,-0.36 -0.032,-0.242 -0.037,-0.487 -0.02,-0.73 0.009,-0.125 0.022,-0.236 0.046,-0.371 l 0.065,-0.304 0.107,-0.447 0.215,-0.895 0.855,-3.582 6.755,-28.678 c 4.444,-19.131 8.838,-38.278 12.897,-57.479 1.006,-4.8 1.993,-9.605 2.896,-14.414 0.443,-2.403 0.889,-4.811 1.243,-7.206 0.174,-1.216 0.344,-2.287 0.431,-3.551 0.088,-1.128 0.112,-2.418 0.171,-3.619 0.364,-9.8 0.628,-19.622 0.88,-29.437 0.246,-9.816 0.465,-19.635 0.618,-29.448 0.066,-4.895 0.153,-9.839 0.102,-14.675 l -0.036,-1.84 c -0.006,-0.78 0.057,-1.361 0.092,-1.976 0.082,-1.202 0.12,-2.365 0.081,-3.536 -0.064,-2.339 -0.424,-4.667 -0.989,-6.957 -0.204,-0.815 0.292,-1.641 1.107,-1.845 0.773,-0.193 1.559,0.253 1.811,0.995 l 6.015,18.028 0.01,0.032 c 0.016,0.047 0.029,0.1 0.037,0.147 0.678,3.87 0.925,7.527 1.249,11.269 0.299,3.722 0.554,7.44 0.785,11.157 0.468,7.436 0.865,14.87 1.233,22.304 l 0.528,11.153 0.247,5.577 0.118,2.789 0.058,1.395 0.007,0.175 0.004,0.087 v 0.191 l -0.017,0.362 -0.036,0.726 c -0.231,3.851 -0.866,7.555 -1.55,11.25 -0.706,3.686 -1.519,7.337 -2.384,10.972 -1.737,7.268 -3.683,14.469 -5.725,21.639 -1.022,3.585 -2.073,7.161 -3.149,10.729 l -1.634,5.348 -0.836,2.672 -0.117,0.352 -0.144,0.385 -0.246,0.65 -0.484,1.299 c -2.547,6.936 -4.905,13.975 -6.612,21.098 -0.221,0.892 -0.385,1.763 -0.581,2.645 -0.155,0.888 -0.361,1.871 -0.461,2.699 -0.246,1.761 -0.382,3.591 -0.499,5.42 -0.223,3.668 -0.276,7.374 -0.332,11.074 -0.055,7.409 0.07,14.832 0.311,22.247 0.258,7.405 0.583,14.85 1.302,22.158 l 0.147,1.387 c 0.049,0.385 0.119,0.844 0.194,1.279 0.157,0.885 0.335,1.782 0.525,2.681 0.38,1.798 0.795,3.603 1.219,5.407 l 2.636,10.822 5.4,21.656 c 3.577,14.45 7.055,28.935 10.098,43.534 1.517,7.301 2.924,14.631 4.067,22.026 0.558,3.7 1.063,7.414 1.399,11.166 0.324,3.756 0.562,7.531 0.197,11.442 -0.008,0.095 -0.027,0.187 -0.053,0.275 l -0.015,0.047 c -1.114,3.606 -2.021,7.419 -2.826,11.189 -0.803,3.787 -1.488,7.603 -2.083,11.434 -0.602,3.833 -1.067,7.68 -1.484,11.528 -0.184,1.949 -0.408,3.894 -0.493,5.755 -0.046,0.945 -0.043,1.9 -0.061,2.851 0.025,0.957 0.029,1.912 0.069,2.871 0.339,7.678 1.487,15.379 2.847,23.02 1.372,7.646 3.024,15.255 4.828,22.827 1.808,7.572 3.764,15.116 5.87,22.61 l 0.8,2.804 0.219,0.757 0.531,2.13 1.417,5.681 2.833,11.363 11.333,45.45 2.833,11.362 0.713,2.859 c 0.045,0.195 0.075,0.383 0.09,0.589 l 0.024,0.374 0.046,0.73 0.094,1.461 0.373,5.843 0.747,11.687 0.373,5.843 c 0.015,0.177 0.048,0.672 -0.024,1.046 l -0.131,0.741 -0.255,1.441 -0.511,2.883 -1.021,5.765 -0.51,2.883 c -0.062,0.366 -0.192,0.756 -0.373,1.098 -0.09,0.173 -0.196,0.339 -0.313,0.496 -0.136,0.182 -0.243,0.293 -0.319,0.378 l -0.979,1.088 -7.84,8.699 -3.919,4.353 -1.96,2.17 c -0.074,0.08 -0.007,0.02 -0.198,0.21 l -0.132,0.13 c -0.081,0.07 -0.007,0.01 -0.214,0.19 l -0.142,0.12 -0.567,0.46 -1.133,0.93 -4.534,3.7 -0.283,0.23 -0.139,0.12 -0.054,0.05 c -0.076,0.07 -0.132,0.15 -0.177,0.23 -0.092,0.17 -0.129,0.38 -0.099,0.58 0.106,0.45 0.151,0.5 1.209,1.15 l 4.937,3.15 0.564,0.36 c 0.086,0.05 0.18,0.08 0.277,0.1 0.017,0.02 0.317,0.03 0.556,0.05 l 0.73,0.06 2.918,0.23 c 3.884,0.29 7.801,0.66 11.656,0.88 l 11.687,0.74 2.88,0.18 h 2.885 0.732 0.366 c 0.094,-0.01 0.115,0 0.174,-0.01 0.2,-0.03 0.391,-0.12 0.539,-0.27 0.073,-0.07 0.133,-0.15 0.18,-0.24 0.021,-0.04 0.049,-0.11 0.049,-0.11 -0.005,0.07 0.066,-0.25 0.057,-0.22 l 0.285,-1.43 2.284,-11.49 0.286,-1.43 0.143,-0.72 c 0.062,-0.34 0.045,-0.17 0.054,-0.49 l 0.05,-2.927 0.099,-5.854 0.397,-23.417 c 0.118,-7.787 0.294,-15.654 0.365,-23.375 l -0.389,-23.418 -0.779,-46.835 -0.778,-46.835 -0.389,-23.417 c -0.194,-7.768 -0.508,-15.595 -0.755,-23.39 l -0.79,-23.408 -0.098,-2.925 -0.025,-0.732 -0.012,-0.366 -0.004,-0.214 0.004,-0.214 0.042,-1.463 0.165,-5.853 0.33,-11.705 1.321,-46.823 2.644,-93.646 c 0.011,-0.434 0.373,-0.777 0.807,-0.765 0.172,0.004 0.332,0.065 0.459,0.162 1.152,0.885 2.452,1.604 3.759,1.724 0.649,0.064 1.282,-0.042 1.85,-0.314 0.284,-0.137 0.55,-0.314 0.795,-0.522 0.12,-0.105 0.236,-0.217 0.343,-0.336 0.1,-0.109 0.217,-0.263 0.267,-0.339 l 0.014,-0.022 c 0.231,-0.359 0.709,-0.462 1.069,-0.231 0.221,0.143 0.346,0.385 0.354,0.63 l 2.4,93.547 1.195,46.773 0.3,11.693 0.154,5.847 0.019,0.731 0.004,0.4 -0.013,0.365 -0.052,1.461 -0.104,2.923 -0.832,23.379 c -0.257,7.79 -0.6,15.594 -0.787,23.372 l -0.432,23.39 -0.864,46.781 -0.865,46.78 -0.432,23.39 0.35,23.377 0.381,23.391 0.096,5.848 c 0.02,0.952 0.022,2.002 0.057,2.872 l 0.556,2.84 2.275,11.47 0.142,0.72 c 0.05,0.24 0.089,0.48 0.147,0.65 0.122,0.36 0.36,0.68 0.676,0.9 0.329,0.23 0.671,0.34 1.09,0.34 h 1.462 c 0.96,-0.01 1.981,0.02 2.892,-0.02 l 2.919,-0.19 11.674,-0.74 c 3.876,-0.23 7.771,-0.59 11.655,-0.88 l 2.916,-0.23 0.728,-0.06 c 0.24,-0.01 0.392,-0.04 0.581,-0.11 0.318,-0.1 0.745,-0.43 1.157,-0.68 l 4.932,-3.14 c 0.195,-0.13 0.436,-0.27 0.592,-0.39 0.162,-0.1 0.286,-0.25 0.406,-0.39 0.216,-0.3 0.353,-0.67 0.348,-1.05 0.009,-0.38 -0.117,-0.76 -0.332,-1.06 -0.153,-0.25 -0.626,-0.58 -0.982,-0.89 l -4.53,-3.7 -1.132,-0.92 c -0.35,-0.27 -0.85,-0.7 -1.126,-1.05 l -1.957,-2.17 -3.916,-4.349 -7.831,-8.689 -0.995,-1.11 c -0.19,-0.234 -0.342,-0.499 -0.449,-0.78 -0.055,-0.145 -0.096,-0.278 -0.13,-0.441 l -0.067,-0.37 -0.51,-2.879 -1.02,-5.759 -0.51,-2.879 -0.256,-1.44 c -0.035,-0.235 -0.099,-0.47 -0.115,-0.795 -0.011,-0.329 0.023,-0.542 0.033,-0.791 l 0.373,-5.836 0.744,-11.674 0.373,-5.837 0.093,-1.459 0.047,-0.729 c -0.001,-0.231 0.077,-0.63 0.135,-0.823 l 0.707,-2.837 2.829,-11.35 11.284,-45.408 2.817,-11.353 1.408,-5.676 0.352,-1.419 c 0.065,-0.248 0.105,-0.447 0.189,-0.736 l 0.203,-0.699 0.796,-2.809 c 2.096,-7.5 4.042,-15.045 5.84,-22.622 1.794,-7.577 3.437,-15.191 4.8,-22.849 1.35,-7.654 2.492,-15.367 2.82,-23.095 l 0.065,-2.894 c -0.025,-0.957 -0.015,-1.898 -0.068,-2.868 l -0.092,-1.459 -0.024,-0.365 -0.03,-0.342 -0.071,-0.725 -0.286,-2.901 c -0.425,-3.862 -0.897,-7.72 -1.504,-11.556 -1.219,-7.656 -2.724,-15.336 -4.956,-22.696 l -0.008,-0.028 c -0.016,-0.052 -0.026,-0.108 -0.032,-0.16 -0.361,-3.825 -0.133,-7.583 0.186,-11.317 0.33,-3.733 0.83,-7.437 1.383,-11.129 1.132,-7.379 2.529,-14.702 4.037,-21.998 3.027,-14.589 6.484,-29.074 10.028,-43.529 l 5.358,-21.665 2.617,-10.834 c 0.421,-1.806 0.833,-3.614 1.21,-5.419 0.19,-0.902 0.367,-1.806 0.522,-2.697 0.162,-0.848 0.248,-1.786 0.341,-2.696 0.707,-7.338 1.017,-14.78 1.261,-22.193 0.227,-7.421 0.337,-14.848 0.268,-22.264 -0.063,-3.704 -0.124,-7.414 -0.355,-11.091 -0.121,-1.829 -0.251,-3.602 -0.514,-5.469 -0.251,-1.747 -0.63,-3.572 -1.049,-5.349 -1.719,-7.145 -4.084,-14.188 -6.64,-21.13 -0.31,-0.861 -0.663,-1.727 -0.989,-2.672 l -0.837,-2.67 -1.638,-5.343 c -1.078,-3.567 -2.131,-7.14 -3.155,-10.723 -2.048,-7.166 -3.998,-14.362 -5.739,-21.623 -0.867,-3.631 -1.682,-7.278 -2.39,-10.958 -0.686,-3.691 -1.321,-7.378 -1.555,-11.224 l -0.035,-0.696 -0.017,-0.349 c 0,0 -0.003,-0.272 -10e-4,-0.2 l 0.003,-0.087 0.008,-0.175 0.056,-1.395 0.117,-2.789 0.242,-5.576 0.519,-11.152 c 0.363,-7.435 0.754,-14.868 1.216,-22.302 0.228,-3.718 0.48,-7.434 0.776,-11.155 0.32,-3.736 0.567,-7.402 1.237,-11.245 0.007,-0.041 0.017,-0.082 0.03,-0.121 l 0.011,-0.034 6,-18.033 c 0.233,-0.699 0.987,-1.076 1.685,-0.844 0.663,0.22 1.037,0.911 0.875,1.577 l -0.003,0.011 c -0.566,2.303 -0.926,4.645 -0.989,6.998 -0.038,1.178 0.002,2.349 0.085,3.553 l 0.061,0.927 c 0.019,0.281 0.038,0.748 0.032,1.011 l -0.035,1.851 c -0.048,4.867 0.043,9.791 0.114,14.693 0.155,9.814 0.365,19.633 0.608,29.45 0.248,9.814 0.508,19.642 0.868,29.434 0.058,1.211 0.082,2.488 0.172,3.646 0.077,1.142 0.26,2.359 0.433,3.55 0.356,2.399 0.803,4.808 1.248,7.212 0.905,4.811 1.894,9.616 2.903,14.417 4.067,19.201 8.47,38.347 12.922,57.477 l 6.768,28.676 0.857,3.581 0.214,0.895 0.135,0.56 0.038,0.19 c 0.02,0.116 0.035,0.233 0.043,0.35 0.017,0.234 0.011,0.47 -0.019,0.703 -0.015,0.119 -0.033,0.224 -0.065,0.363 l -0.045,0.2 -0.2,0.899 -1.597,7.192 -3.194,14.385 -0.033,0.122 c -0.001,0.036 -0.006,0.069 -0.017,0.103 l -0.024,0.229 c -0.02,0.151 -0.024,0.346 -0.033,0.529 -0.016,0.368 -0.018,0.761 -0.016,1.149 0.003,0.781 0.029,1.576 0.059,2.37 0.063,1.59 0.155,3.188 0.257,4.785 0.204,3.197 0.453,6.398 0.715,9.597 l 0.841,9.598 0.223,2.399 0.114,1.198 0.057,0.6 0.029,0.299 0.016,0.146 0.014,0.075 c 0.059,0.394 0.324,0.714 0.705,0.862 0.383,0.145 0.783,0.085 1.107,-0.168 l 0.621,-0.484 c 0.056,-0.044 0.137,-0.034 0.181,0.023 0.043,0.056 0.033,0.137 -0.023,0.18 -0.011,0.009 -0.024,0.016 -0.036,0.02 l -0.743,0.261 c 0.281,-0.221 0.444,-0.581 0.425,-0.937 -0.006,-0.108 0.004,-0.214 0.027,-0.314 l 0.013,-0.054 0.231,-0.976 0.209,-1.012 c 0.134,-0.678 0.252,-1.362 0.361,-2.048 0.217,-1.373 0.39,-2.755 0.534,-4.142 0.269,-2.775 0.407,-5.566 0.412,-8.359 v -0.028 c 0.001,-0.601 0.468,-1.093 1.057,-1.141 0.523,-0.042 0.941,-0.032 1.442,0.028 0.486,0.071 1.012,0.171 1.599,0.54 0.288,0.182 0.592,0.471 0.793,0.848 0.099,0.184 0.171,0.375 0.225,0.644 l 0.026,0.167 0.019,0.214 0.48,5.855 0.769,9.369 0.096,1.171 c 0.013,0.153 0.046,0.491 0.016,0.778 -0.024,0.293 -0.086,0.583 -0.183,0.86 -0.168,0.551 -0.62,1.105 -0.813,1.332 l -0.736,0.916 -2.943,3.664 -2.943,3.665 -1.472,1.832 -0.722,0.901 c -0.12,0.156 -0.203,0.342 -0.232,0.538 -0.025,0.225 -0.022,0.313 0.083,0.717 l 0.275,1.142 c 0.213,0.925 0.262,1.137 0.605,1.408 0.313,0.245 0.766,0.314 1.123,0.174 0.118,-0.033 0.326,-0.167 0.654,-0.45 l 0.908,-0.746 7.262,-5.969 7.236,-5.946 c 0.08,-0.072 0.132,-0.127 0.21,-0.239 l 0.338,-0.48 0.678,-0.96 1.354,-1.92 2.71,-3.841 0.678,-0.96 0.307,-0.439 c 0.054,-0.085 0.098,-0.176 0.129,-0.272 0.031,-0.092 0.052,-0.205 0.056,-0.288 l 0.004,-0.528 10e-4,-1.175 0.007,-4.701 0.015,-9.4 0.002,-2.292 c -0.002,-0.054 -0.007,-0.099 -0.018,-0.159 l -0.051,-0.289 -0.101,-0.578 -0.203,-1.158 -0.813,-4.629 -1.626,-9.259 -3.251,-18.517 -1.626,-9.259 -0.406,-2.315 -0.102,-0.578 -0.06,-0.36 -0.031,-0.292 -0.047,-1.245 -0.161,-4.697 0.294,0.675 -0.857,-0.86 c -0.186,-0.185 -0.284,-0.431 -0.294,-0.674 l -2.174,-63.165 -0.543,-15.791 -0.136,-3.947 c 0.017,-0.42 -0.232,-1.137 -0.356,-1.764 l -0.455,-1.923 -1.817,-7.688 -3.634,-15.377 -1.818,-7.688 c -0.356,-1.245 -0.523,-2.828 -0.428,-4.117 l 0.096,-3.948 0.797,0.815 h -0.052 c -0.44,0.001 -0.797,-0.355 -0.798,-0.795 l 0.001,-0.021 c 0.478,-19.338 0.86,-38.681 1.129,-58.022 0.133,-9.671 0.233,-19.342 0.25,-29.012 0.008,-4.835 -0.006,-9.67 -0.062,-14.503 -0.062,-4.831 -0.15,-9.666 -0.405,-14.479 -0.069,-1.202 -0.148,-2.404 -0.264,-3.595 -0.06,-0.594 -0.124,-1.189 -0.218,-1.768 -0.089,-0.578 -0.188,-1.094 -0.418,-1.659 -0.798,-2.21 -2.03,-4.268 -3.457,-6.168 -2.895,-3.788 -6.561,-6.976 -10.549,-9.62 -4.002,-2.64 -8.366,-4.729 -12.957,-6.13 l -6.924,-2.167 -3.462,-1.084 -1.731,-0.542 c -0.284,-0.097 -0.574,-0.157 -0.91,-0.315 -0.318,-0.164 -0.542,-0.302 -0.817,-0.454 -4.189,-2.394 -8.5,-4.662 -12.441,-7.527 -3.958,-2.82 -7.64,-6.032 -10.926,-9.616 -3.283,-3.584 -6.149,-7.569 -8.347,-11.913 -2.213,-4.331 -3.681,-9.059 -4.19,-13.902 l -10e-4,-0.025 z m 0.304,-0.384 -0.012,14.137 -0.002,-0.025 c 0.536,4.779 2.015,9.435 4.231,13.701 2.201,4.277 5.061,8.199 8.334,11.724 3.27,3.529 6.934,6.693 10.868,9.465 3.91,2.814 8.197,5.041 12.414,7.422 l 0.77,0.425 c 0.211,0.102 0.516,0.175 0.805,0.269 l 1.734,0.533 3.467,1.066 27.67588,0.40268 c 4.67,1.4 -11.60788,5.23432 -7.52288,7.90032 4.076,2.674 7.833,5.9 10.841,9.792 1.484,1.955 -4.17812,-20.03232 -3.31812,-17.69232 0.234,0.555 7.33912,25.35032 7.43412,25.96632 0.103,0.614 0.171,1.222 0.235,1.83 0.125,1.215 0.211,2.427 0.287,3.639 0.282,4.846 0.394,9.686 0.481,14.526 0.081,4.84 0.12,9.68 0.137,14.518 0.032,9.678 -0.018,19.354 -0.102,29.029 -0.179,19.351 -0.517,38.698 -0.926,58.044 l -0.796,-0.815 h 0.052 c 0.44,-10e-4 0.797,0.355 0.797,0.794 v 0.021 l -0.084,3.95 c -0.071,1.343 0.048,2.408 0.398,3.704 l 1.843,7.682 3.685,15.365 1.842,7.682 0.461,1.921 0.23,0.96 0.121,0.525 c 0.044,0.212 0.054,0.481 0.058,0.617 l 0.148,3.947 0.596,15.789 2.381,63.157 -0.294,-0.674 0.86,0.857 c 0.186,0.186 0.285,0.432 0.294,0.676 l 0.177,4.697 0.041,1.103 0.032,0.292 c -0.019,-0.128 -0.002,-0.014 -0.004,-0.034 l 0.006,0.037 0.013,0.072 0.026,0.145 0.104,0.578 0.414,2.313 1.656,9.254 3.312,18.506 1.656,9.254 0.828,4.626 0.207,1.157 0.103,0.578 0.052,0.289 c 0.024,0.134 0.042,0.283 0.05,0.425 l 0.008,2.408 0.016,9.4 0.007,4.701 10e-4,1.175 c -0.003,0.222 0.006,0.333 -0.006,0.646 -0.018,0.309 -0.072,0.583 -0.162,0.864 -0.09,0.276 -0.215,0.541 -0.371,0.787 l -0.365,0.525 -0.676,0.961 -2.704,3.844 -1.352,1.922 -0.677,0.961 -0.338,0.481 c -0.144,0.211 -0.353,0.452 -0.567,0.638 l -7.281,6.001 -7.255,5.978 -0.907,0.747 c -0.269,0.218 -0.676,0.594 -1.302,0.827 -1.109,0.424 -2.397,0.219 -3.324,-0.497 -0.466,-0.354 -0.842,-0.838 -1.07,-1.377 -0.24,-0.621 -0.262,-0.915 -0.372,-1.312 l -0.277,-1.141 c -0.105,-0.35 -0.228,-1.052 -0.122,-1.605 0.086,-0.58 0.326,-1.135 0.684,-1.599 l 0.747,-0.934 1.469,-1.834 2.938,-3.669 2.939,-3.668 c 0.439,-0.586 1.141,-1.336 1.165,-1.562 0.031,-0.092 0.053,-0.189 0.06,-0.286 0.009,-0.104 0.003,-0.158 -0.017,-0.395 l -0.097,-1.171 -0.781,-9.368 -0.391,-4.684 -0.097,-1.171 -0.006,-0.073 -0.003,-0.037 c 0.002,0.018 -0.01,-0.091 0.004,0.031 -0.006,-0.038 -0.019,-0.123 -0.019,-0.123 0.008,0.079 0.021,0.081 0.023,0.095 0.016,0.03 0.035,0.033 -0.007,0.006 -0.168,-0.144 -0.974,-0.254 -1.522,-0.195 l 1.056,-1.169 c -10e-4,2.867 -0.138,5.735 -0.412,8.593 -0.146,1.429 -0.322,2.855 -0.546,4.278 -0.112,0.711 -0.233,1.422 -0.373,2.132 l -0.219,1.067 c -0.079,0.36 -0.156,0.701 -0.257,1.089 l 0.04,-0.367 c 0.061,1.104 -0.442,2.219 -1.31,2.905 l -0.742,0.26 0.742,-0.26 c -0.93,0.767 -2.324,0.987 -3.443,0.535 -1.13,-0.411 -2.029,-1.493 -2.205,-2.697 l -0.034,-0.223 -0.016,-0.153 -0.03,-0.301 -0.058,-0.601 -0.116,-1.202 -0.227,-2.403 -0.855,-9.62 c -0.268,-3.209 -0.522,-6.42 -0.732,-9.64 -0.105,-1.611 -0.2,-3.223 -0.266,-4.846 -0.032,-0.812 -0.06,-1.625 -0.064,-2.451 -0.002,-0.416 -0.002,-0.828 0.016,-1.262 0.01,-0.219 0.013,-0.426 0.043,-0.674 0.014,-0.125 0.019,-0.226 0.042,-0.37 0.031,-0.163 0.068,-0.326 0.11,-0.486 l -0.034,0.121 3.174,-14.389 1.588,-7.194 0.198,-0.9 0.057,-0.249 0.015,-0.09 c 0.009,-0.072 0.01,-0.144 0.005,-0.216 l -0.013,-0.107 -0.034,-0.147 -0.108,-0.448 -0.216,-0.896 -0.862,-3.583 -6.809,-28.679 c -4.48,-19.134 -8.91,-38.279 -13.012,-57.514 -1.017,-4.811 -2.015,-9.626 -2.933,-14.469 -0.452,-2.424 -0.905,-4.845 -1.274,-7.304 -0.18,-1.238 -0.368,-2.452 -0.46,-3.761 -0.1,-1.29 -0.12,-2.471 -0.182,-3.712 -0.375,-9.841 -0.647,-19.653 -0.908,-29.479 -0.254,-9.824 -0.487,-19.647 -0.642,-29.476 -0.065,-4.921 -0.152,-9.82 -0.097,-14.776 l 0.036,-1.832 c 0.004,-0.351 -0.008,-0.498 -0.027,-0.83 l -0.059,-0.911 c -0.084,-1.245 -0.127,-2.531 -0.084,-3.808 0.07,-2.561 0.465,-5.099 1.075,-7.564 l 2.557,0.745 -6.02,18.026 0.041,-0.155 c -0.613,3.489 -0.89,7.259 -1.204,10.931 -0.298,3.695 -0.554,7.4 -0.785,11.107 -0.469,7.415 11.951,102.344 11.58,109.77 l -13.348,-76.364 -0.248,5.571 -0.12,2.785 -0.058,1.392 -0.007,0.174 -0.004,0.087 c -10e-4,0.13 -0.002,-0.08 0,-0.026 l 0.017,0.348 0.034,0.697 c 0.212,3.583 0.83,7.249 1.5,10.867 0.695,3.627 1.497,7.242 2.355,10.847 1.72,7.21 3.654,14.379 5.687,21.521 1.017,3.571 2.062,7.134 3.133,10.69 l 1.626,5.327 0.83,2.655 c 0.28,0.812 0.627,1.671 0.947,2.56 2.573,7.017 4.951,14.108 6.706,21.434 0.431,1.844 0.812,3.664 1.088,5.599 0.252,1.817 0.396,3.757 0.512,5.638 0.222,3.75 0.27,7.481 0.321,11.214 0.044,7.463 -0.092,14.914 -0.345,22.364 -0.272,7.452 -0.603,14.886 -1.348,22.356 -0.101,0.939 -0.185,1.856 -0.37,2.836 -0.168,0.941 -0.352,1.861 -0.548,2.779 -0.389,1.834 -0.811,3.652 -1.24,5.466 l -2.659,10.851 -5.432,21.646 c -3.59,14.432 -9.68449,84.19136 -12.75249,98.72836 -1.528,7.268 -0.35151,-40.74636 -1.50151,-33.42236 -0.561,3.663 -1.068,7.334 -1.406,11.01 -0.329,3.668 -0.556,7.374 -0.227,10.965 l -0.04,-0.188 c 2.268,7.579 3.734,15.254 4.943,22.995 0.598,3.868 1.06,7.755 1.473,11.645 l 0.278,2.921 0.07,0.73 0.032,0.386 0.022,0.365 0.087,1.459 c 0.05,0.978 0.04,1.987 0.061,2.979 l -0.077,2.953 c -0.362,7.862 -1.542,15.612 -2.925,23.304 -1.397,7.693 -3.073,15.325 -4.899,22.917 -1.829,7.591 -3.806,15.144 -5.934,22.657 l -0.809,2.816 -0.207,0.704 c -0.055,0.178 -0.118,0.456 -0.176,0.68 l -0.357,1.418 -1.429,5.671 -2.857,11.343 -11.412,45.375 -2.845,11.346 -0.711,2.837 c -0.072,0.277 -0.092,0.358 -0.104,0.616 l -0.048,0.73 -0.095,1.459 -0.381,5.836 -0.761,11.672 -0.381,5.836 c -0.011,0.239 -0.041,0.51 -0.033,0.67 0.004,0.162 0.059,0.403 0.099,0.65 l 0.759,4.32 1.013,5.76 0.506,2.88 0.063,0.351 c 0.015,0.075 0.044,0.176 0.077,0.259 0.066,0.174 0.159,0.337 0.276,0.482 l 0.956,1.068 7.819,8.7 3.909,4.35 1.955,2.18 c 0.342,0.4 0.594,0.6 1.007,0.94 l 1.131,0.92 4.524,3.71 c 0.374,0.33 0.749,0.53 1.169,1.08 0.347,0.49 0.541,1.09 0.529,1.69 0.002,0.59 -0.207,1.18 -0.558,1.67 -0.188,0.23 -0.394,0.45 -0.643,0.62 -0.24,0.17 -0.421,0.27 -0.634,0.41 l -4.937,3.14 c -0.427,0.24 -0.762,0.55 -1.364,0.78 -0.27,0.1 -0.603,0.15 -0.85,0.17 l -0.729,0.05 -2.915,0.23 c -3.893,0.28 -7.765,0.63 -11.673,0.87 l -11.675,0.72 -2.919,0.18 c -1.035,0.04 -1.966,0.01 -2.954,0.02 h -1.462 c -0.557,0 -1.191,-0.18 -1.658,-0.52 -0.485,-0.34 -0.853,-0.84 -1.04,-1.4 -0.098,-0.3 -0.128,-0.54 -0.178,-0.77 l -0.141,-0.72 -2.259,-11.48 -0.564,-2.9 c -0.046,-1.08 -0.038,-1.98 -0.059,-2.978 l -0.087,-5.847 -0.349,-23.392 -0.348,-23.407 0.408,-23.391 0.816,-46.781 0.815,-46.782 0.408,-23.39 c 0.18,-7.814 0.514,-15.593 0.763,-23.391 l 0.808,-23.38 0.101,-2.923 0.05,-1.461 0.013,-0.365 -0.005,-0.331 -0.02,-0.731 -0.16,-5.846 -0.329,-11.693 -7.274,-137.662 3.281,-2.647 1.437,0.377 c -0.159,0.249 -0.284,0.398 -0.44,0.577 -0.152,0.169 -0.314,0.326 -0.483,0.476 -0.343,0.294 -0.723,0.549 -1.135,0.749 -0.825,0.402 -1.772,0.554 -2.66,0.468 -0.894,-0.074 -1.723,-0.361 -2.484,-0.718 -0.758,-0.367 -6.907,157.532 -2.097,-1.312 l 1.265,-0.603 3.316,2.633 -6.902,137.845 -0.299,11.707 -0.15,5.853 -0.037,1.463 -0.003,0.152 0.002,0.152 0.014,0.366 0.026,0.731 0.107,2.926 0.852,23.405 c 0.269,7.81 0.602,15.584 0.818,23.424 l 0.452,23.417 0.903,46.832 0.903,46.833 0.452,23.417 c -0.05,7.89 -0.206,15.635 -0.303,23.46 l -0.334,23.418 -0.084,5.855 -0.041,2.925 c 0.02,0.17 -0.057,0.83 -0.104,0.97 l -0.141,0.71 -0.281,1.44 -2.255,11.49 -0.282,1.44 c -0.062,0.27 -0.035,0.19 -0.126,0.49 -0.075,0.23 -0.146,0.38 -0.236,0.56 -0.179,0.34 -0.412,0.66 -0.688,0.93 -0.552,0.54 -1.279,0.9 -2.046,1 -0.181,0.03 -0.405,0.04 -0.555,0.04 h -0.366 l -0.732,0.01 h -2.97 l -2.964,-0.18 -11.688,-0.73 c -3.94,-0.22 -7.797,-0.58 -11.699,-0.86 l -2.919,-0.23 -0.73,-0.06 c -0.246,-0.02 -0.437,-0.01 -0.898,-0.1 -0.381,-0.07 -0.749,-0.21 -1.087,-0.41 l -0.674,-0.42 -4.942,-3.14 -0.618,-0.39 -0.154,-0.1 -0.219,-0.16 c -0.065,-0.03 -0.281,-0.21 -0.441,-0.37 -0.567,-0.57 -0.919,-1.3 -1.029,-2.07 -0.114,-0.77 0.02,-1.57 0.39,-2.26 0.183,-0.35 0.422,-0.67 0.703,-0.93 l 0.213,-0.2 0.145,-0.12 0.283,-0.23 4.529,-3.71 1.133,-0.93 0.566,-0.46 0.141,-0.12 c -0.11,0.11 0.046,-0.04 0.056,-0.05 l 0.132,-0.13 c -0.103,0.11 0.042,-0.05 0.051,-0.06 l 1.957,-2.17 3.914,-4.357 7.828,-8.709 0.979,-1.089 c 0.088,-0.096 0.146,-0.164 0.155,-0.179 0.029,-0.039 0.055,-0.079 0.077,-0.122 0.045,-0.09 0.074,-0.168 0.093,-0.284 l 0.508,-2.883 1.013,-5.767 0.508,-2.883 0.253,-1.442 0.123,-0.701 c 0.012,-0.108 0.015,-0.105 -0.007,-0.413 l -0.38,-5.843 -0.762,-11.686 -0.38,-5.842 -0.095,-1.461 -0.048,-0.731 -0.023,-0.357 c -0.003,-0.036 -0.011,-0.09 -0.021,-0.133 l -0.707,-2.821 -2.848,-11.359 -11.388,-45.436 -2.847,-11.359 -1.424,-5.68 -0.356,-1.42 -0.178,-0.709 -0.191,-0.649 -0.81,-2.825 c -2.127,-7.535 -4.099,-15.106 -5.927,-22.719 -1.824,-7.613 -3.496,-15.267 -4.891,-22.988 -1.382,-7.721 -2.56,-15.501 -2.921,-23.429 -0.042,-0.992 -0.05,-1.989 -0.076,-2.983 0.018,-1 0.013,-1.997 0.061,-3.002 0.093,-2.039 0.317,-3.975 0.497,-5.912 0.419,-3.913 0.887,-7.819 1.491,-11.7 0.599,-3.884 1.288,-7.756 2.1,-11.607 0.823,-3.863 1.712,-7.657 2.898,-11.513 l -0.068,0.322 c 0.326,-3.505 0.109,-7.194 -0.216,-10.84 -0.331,-3.657 -0.833,-7.318 -1.389,-10.972 -1.138,-7.309 0.294,40.266 -1.225,33.003 -3.053,-14.527 -9.372,-83.84 -12.93,-98.277 l -5.389,-21.655 -2.64,-10.862 c -0.426,-1.817 -0.845,-3.638 -1.232,-5.479 -0.195,-0.921 -0.378,-1.848 -0.545,-2.794 -0.083,-0.482 -0.156,-0.942 -0.222,-1.48 l -0.147,-1.387 c -0.733,-7.5 -1.049,-14.93 -1.308,-22.391 -0.238,-7.455 -0.36,-14.911 -0.301,-22.38 0.058,-3.738 0.113,-7.473 0.343,-11.231 0.121,-1.883 0.259,-3.764 0.528,-5.689 0.132,-1.016 0.315,-1.855 0.479,-2.798 0.206,-0.934 0.389,-1.891 0.616,-2.805 1.766,-7.348 4.152,-14.442 6.733,-21.466 l 0.492,-1.315 0.247,-0.655 0.102,-0.267 0.018,-0.043 0.034,-0.101 0.052,-0.166 0.832,-2.651 1.629,-5.324 c 1.073,-3.553 2.121,-7.115 3.14,-10.683 2.037,-7.137 3.976,-14.302 5.701,-21.505 0.859,-3.601 1.664,-7.212 2.36,-10.832 0.673,-3.615 1.291,-7.263 1.505,-10.841 l 0.033,-0.668 0.017,-0.334 c 0.002,-0.05 0.004,0.137 10e-4,0.017 l -0.003,-0.088 -0.007,-0.174 -0.057,-1.392 -0.118,-2.785 -0.244,-5.571 -11.939,74.126 c -0.365,-7.425 10.661,-100.115 10.198,-107.528 -0.229,-3.707 -0.481,-7.412 -0.776,-11.105 -0.311,-3.667 -0.587,-7.444 -1.193,-10.907 l 0.048,0.179 -6.006,-18.031 2.919,-0.85 c 0.611,2.477 1.006,5.029 1.075,7.604 0.042,1.284 -0.002,2.578 -0.088,3.826 -0.038,0.61 -0.092,1.253 -0.087,1.702 l 0.035,1.843 c 0.051,4.987 -0.04,9.866 -0.108,14.794 -0.158,9.83 -0.382,19.654 -0.633,29.478 -0.257,9.825 -0.525,19.644 -0.895,29.477 -0.062,1.25 -0.083,2.418 -0.185,3.738 -0.081,1.187 -0.283,2.547 -0.462,3.76 -0.371,2.464 -0.825,4.885 -1.278,7.311 -0.921,4.844 -1.921,9.66 -2.941,14.471 -4.11,19.235 -8.548,38.379 -13.036,57.512 l -6.822,28.677 -0.864,3.582 -0.216,0.896 -0.109,0.448 -0.027,0.112 c 0.011,-0.046 -0.012,0.062 -0.006,0.034 l -0.01,0.086 c -0.004,0.063 -0.004,0.127 0.004,0.189 l 0.016,0.094 0.053,0.234 0.198,0.899 1.585,7.195 3.168,14.391 -0.037,-0.134 c 0.044,0.167 0.082,0.336 0.115,0.506 0.023,0.148 0.028,0.25 0.043,0.377 0.029,0.253 0.032,0.46 0.042,0.681 0.019,0.438 0.018,0.851 0.016,1.268 -0.005,0.829 -0.033,1.642 -0.065,2.456 -0.067,1.624 -0.163,3.237 -0.268,4.848 -0.212,3.222 -0.468,6.433 -0.737,9.643 l -0.859,9.62 -0.228,2.403 -0.116,1.202 -0.059,0.601 -0.03,0.301 -0.027,0.232 -0.024,0.148 c -0.182,1.248 -1.11,2.361 -2.275,2.785 -1.153,0.466 -2.593,0.238 -3.55,-0.553 l 0.81,0.284 -0.81,-0.284 c -0.895,-0.707 -1.413,-1.857 -1.35,-2.995 l 0.044,0.401 c -0.102,-0.392 -0.178,-0.733 -0.258,-1.095 l -0.219,-1.069 c -0.139,-0.712 -0.261,-1.423 -0.372,-2.136 -0.224,-1.425 -0.4,-2.854 -0.545,-4.284 -0.273,-2.862 -0.41,-5.733 -0.41,-8.604 l 1.147,1.269 c -0.529,-0.06 -1.334,0.057 -1.457,0.179 -0.033,0.02 0,0.005 0.025,-0.043 0.009,-0.023 0.021,-0.045 0.021,-0.061 0.002,-0.006 0.005,-0.008 0.002,-0.012 l -0.012,0.142 -0.099,1.171 -0.392,4.684 -0.785,9.367 -0.098,1.171 -0.02,0.263 0.003,0.117 c 0.006,0.09 0.026,0.178 0.055,0.264 0.011,0.195 0.707,0.947 1.15,1.535 l 2.936,3.67 2.937,3.67 1.469,1.834 0.755,0.947 c 0.35,0.453 0.608,1.038 0.692,1.626 0.045,0.297 0.052,0.599 0.022,0.898 -0.015,0.149 -0.041,0.297 -0.074,0.443 l -0.072,0.297 -0.278,1.142 -0.138,0.57 -0.035,0.143 -0.063,0.219 c -0.04,0.112 -0.033,0.141 -0.118,0.337 -0.278,0.662 -0.632,1.078 -1.119,1.465 -0.949,0.732 -2.266,0.942 -3.402,0.507 -0.563,-0.194 -1.095,-0.644 -1.324,-0.84 l -0.907,-0.748 -7.252,-5.981 -7.279,-6.005 c -0.221,-0.191 -0.433,-0.436 -0.58,-0.652 l -0.338,-0.48 -0.676,-0.962 -1.351,-1.922 -2.703,-3.845 -0.676,-0.962 -0.356,-0.512 c -0.179,-0.281 -0.292,-0.529 -0.388,-0.818 -0.091,-0.282 -0.147,-0.575 -0.164,-0.871 l -0.007,-0.219 v -0.147 l 0.001,-0.294 0.001,-1.175 0.005,-4.7 0.011,-9.4 0.007,-2.412 c 0.007,-0.145 0.026,-0.298 0.051,-0.434 l 0.051,-0.289 0.103,-0.579 0.207,-1.156 0.825,-4.628 1.651,-9.254 3.302,-18.508 1.654,-9.254 0.414,-2.313 0.104,-0.579 0.026,-0.144 0.013,-0.072 0.006,-0.037 c -0.003,0.023 0.016,-0.1 -0.005,0.041 l 0.032,-0.292 0.04,-1.097 0.178,-4.697 c 0.01,-0.287 0.134,-0.55 0.322,-0.739 l 0.86,-0.857 -0.321,0.738 2.391,-63.157 0.597,-15.789 0.15,-3.947 c 0.003,-0.134 0.013,-0.413 0.058,-0.63 l 0.123,-0.528 0.23,-0.96 0.461,-1.921 1.843,-7.682 3.688,-15.364 1.843,-7.682 c 0.35,-1.291 0.468,-2.35 0.397,-3.685 l -0.083,-3.949 c -0.012,-0.481 0.368,-0.881 0.849,-0.892 0.005,-10e-4 0.018,-10e-4 0.023,-10e-4 h 0.052 l -0.871,0.893 c -0.409,-19.347 -0.735,-38.694 -0.924,-58.045 -0.091,-9.676 -0.149,-19.352 -0.124,-29.03 0.013,-4.839 0.048,-9.679 0.126,-14.52 0.082,-4.841 0.194,-9.682 0.476,-14.531 0.077,-1.213 0.163,-2.426 0.287,-3.644 0.151,-1.204 1.21098,-20.60419 1.69898,-21.84019 0.866,-2.357 1.18602,13.64319 2.67502,11.68119 3.018,-3.905 6.784,-7.137 10.869,-9.817 4.093,-2.672 -18.22302,-0.46219 -13.54402,-1.86419 L 293.069,295.73 l 3.468,-1.065 1.734,-0.533 c 0.289,-0.095 0.597,-0.169 0.791,-0.264 l 0.763,-0.421 c 4.219,-2.382 8.501,-4.607 12.404,-7.415 3.929,-2.769 7.587,-5.927 10.852,-9.451 3.264,-3.52 6.115,-7.437 8.307,-11.705 2.206,-4.256 3.677,-8.898 4.207,-13.66 l -0.002,0.034 0.185,-15.795 c 0.002,-0.166 0.138,-0.298 0.304,-0.296 0.08,0.001 0.154,0.035 0.208,0.086 l 4.823,4.696 c 1.619,1.549 3.189,3.167 4.849,4.655 1.662,1.477 3.501,2.763 5.544,3.621 1.019,0.429 2.078,0.772 3.166,0.979 1.098,0.205 2.171,0.343 3.303,0.332 1.116,0.017 2.206,-0.098 3.302,-0.299 1.09,-0.209 2.162,-0.511 3.203,-0.901 2.087,-0.772 4.043,-1.88 5.879,-3.146 1.835,-1.276 3.542,-2.726 5.185,-4.251 1.64,-1.523 3.238,-3.104 4.726,-4.771 0.055,-0.062 0.15,-0.069 0.212,-0.014 0.033,0.029 0.051,0.072 0.051,0.113"/>
                            </g>
                        </g>
                    </g>
                </g>
				<g
						id="g12423">
                    <g
							opacity="0.610001"
							id="g12421">
                        <g
								id="g12419">
                            <clipPath
									id="_femaleclip2">
                                <rect
										id="rect12410"
										height="125.063"
										width="85.193"
										y="124.795"
										x="315.99"/>
                            </clipPath>
							<g
									id="g12417"
									clip-path="url(#_femaleclip2)">
                                <path
										id="path12413"
										style="fill:white;fill-rule:nonzero;"
										d="M358.438,249.662C358.438,249.662 354.677,250.2 349.842,248.073C347.777,247.164 335.141,235.887 329.725,228.343C325.719,222.763 320.827,215.383 319.087,195.847C317.346,176.311 316.587,168.409 316.572,165.14C316.557,161.871 316.765,126.89 358.353,125.342L358.352,125.342C399.939,126.89 400.148,161.871 400.133,165.14C400.118,168.409 399.359,176.335 397.618,195.871C395.877,215.407 390.986,222.775 386.98,228.355C381.564,235.899 368.928,247.17 366.863,248.079C362.027,250.206 358.356,249.662 358.356,249.662"/>
								<path
										id="path12415"
										style="fill:white;;fill-rule:nonzero;"
										d="M358.451,249.761C356.696,249.976 354.923,249.817 353.198,249.453C352.337,249.261 351.489,249.012 350.655,248.719C350.241,248.545 349.834,248.435 349.415,248.203C348.989,247.961 348.648,247.716 348.282,247.457C345.451,245.365 342.826,243.06 340.262,240.68C337.701,238.298 335.213,235.835 332.847,233.241C331.67,231.937 330.516,230.608 329.445,229.192C328.383,227.788 327.382,226.344 326.44,224.84C324.555,221.838 323.06,218.582 321.933,215.232C320.803,211.878 319.993,208.436 319.375,204.973C318.725,201.516 318.39,198.004 318.092,194.528L317.205,184.111L316.421,173.681L316.089,168.451C315.997,166.712 315.932,164.924 316.065,163.159C316.303,159.635 316.953,156.152 317.993,152.791C319.019,149.428 320.428,146.172 322.292,143.185C324.135,140.185 326.462,137.5 329.087,135.163C331.724,132.835 334.72,130.923 337.905,129.439C341.093,127.951 344.466,126.896 347.893,126.131C351.327,125.382 354.826,124.975 358.332,124.795L358.352,125.889L358.373,124.795C365.366,124.986 372.48,126.091 378.975,129.034C382.213,130.492 385.273,132.391 387.984,134.721C390.689,137.056 393.029,139.818 394.908,142.857C396.798,145.891 398.235,149.192 399.261,152.602C400.285,156.016 400.912,159.538 401.123,163.103C401.24,164.883 401.169,166.703 401.049,168.447C400.931,170.198 400.786,171.936 400.638,173.675L399.707,184.09L398.757,194.496C398.607,196.229 398.412,197.986 398.224,199.711C398,201.462 397.744,203.209 397.427,204.938C396.8,208.401 395.981,211.842 394.843,215.195C393.715,218.547 392.204,221.798 390.317,224.797C389.374,226.3 388.367,227.738 387.306,229.143C386.237,230.558 385.083,231.889 383.906,233.19C381.54,235.783 379.051,238.242 376.49,240.621C373.924,242.996 371.3,245.3 368.476,247.393C368.119,247.652 367.758,247.904 367.365,248.136C366.944,248.387 366.526,248.5 366.127,248.669C365.29,248.966 364.446,249.224 363.587,249.416C361.866,249.784 360.101,249.974 358.342,249.761L358.371,249.563C360.084,249.698 361.826,249.439 363.487,249.008C364.32,248.785 365.133,248.498 365.925,248.18C366.32,247.995 366.745,247.852 367.063,247.636C367.411,247.412 367.755,247.15 368.093,246.884C370.782,244.715 373.298,242.299 375.788,239.885C378.263,237.452 380.665,234.941 382.922,232.321C385.19,229.72 387.19,226.909 388.982,223.977C390.753,221.048 392.147,217.911 393.184,214.644C394.23,211.379 394.971,208.012 395.525,204.612C395.815,202.91 396.01,201.202 396.231,199.499C396.413,197.76 396.598,196.054 396.741,194.316L397.652,183.906L398.544,173.5C398.684,171.767 398.823,170.034 398.932,168.309C399.041,166.578 399.142,164.912 399.043,163.212C398.686,156.434 396.83,149.648 393.306,143.842C391.554,140.934 389.349,138.313 386.822,136.049C384.286,133.792 381.399,131.929 378.311,130.474C375.223,129.014 371.935,127.972 368.582,127.22C365.222,126.48 361.784,126.073 358.332,125.889L358.352,124.795L358.373,125.889C354.916,125.99 351.462,126.313 348.067,126.974C344.675,127.635 341.338,128.628 338.2,130.078C335.058,131.51 332.103,133.362 329.494,135.627C326.885,137.893 324.67,140.597 322.882,143.547C319.283,149.454 317.456,156.353 317.176,163.216C317.095,164.932 317.206,166.633 317.344,168.369L317.814,173.564L318.855,183.964L319.831,194.373C320.162,197.838 320.53,201.268 321.106,204.675C321.676,208.077 322.433,211.446 323.494,214.711C324.554,217.974 325.956,221.114 327.747,224.034C329.555,226.956 331.563,229.768 333.837,232.364C336.101,234.98 338.507,237.489 340.987,239.919C343.482,242.329 346,244.747 348.692,246.909C349.025,247.169 349.387,247.443 349.711,247.645C350.045,247.856 350.48,248.001 350.862,248.18C351.66,248.498 352.475,248.774 353.307,248.996C354.97,249.417 356.706,249.684 358.425,249.563L358.451,249.761Z"/>
                            </g>
                        </g>
                    </g>
                </g>
            </g>
        </g>
    </svg>